<svg width="40" height="40" viewBox="0 0 40 40" fill="none" xmlns="http://www.w3.org/2000/svg">
<path d="M29.522 19.042C35.3089 19.042 40 23.7331 40 29.5199C40 35.3068 35.3089 39.9979 29.522 39.9979C23.7352 39.9979 19.0441 35.3068 19.0441 29.5199C19.0441 23.7331 23.7352 19.042 29.522 19.042ZM19.0866 22.8508C18.5213 23.7334 18.0649 24.6925 17.7364 25.709L4.2843 25.7096C3.49636 25.7096 2.85762 26.3484 2.85762 27.1363V28.2369C2.85762 29.2574 3.2217 30.2443 3.88441 31.0204C6.27207 33.8165 10.0172 35.2373 15.2339 35.2373C16.3701 35.2373 17.4368 35.1698 18.4348 35.0355C18.902 35.9784 19.488 36.8518 20.1713 37.6385C18.6558 37.9436 17.0083 38.0949 15.2339 38.0949C9.2408 38.0949 4.69523 36.3704 1.7113 32.8761C0.606807 31.5828 0 29.9377 0 28.2369V27.1363C0 24.7702 1.91815 22.852 4.2843 22.852L19.0866 22.8508ZM29.522 22.8522L29.3508 22.8676C28.9619 22.9381 28.6554 23.2446 28.5849 23.6334L28.5695 23.8047L28.5676 28.5674H23.8142L23.643 28.5828C23.2541 28.6533 22.9476 28.9599 22.8771 29.3487L22.8617 29.5199L22.8771 29.6912C22.9476 30.08 23.2541 30.3866 23.643 30.4572L23.8142 30.4725H28.5676L28.5695 35.2352L28.5849 35.4065C28.6554 35.7953 28.9619 36.1018 29.3508 36.1723L29.522 36.1877L29.6933 36.1723C30.0821 36.1018 30.3887 35.7953 30.4592 35.4065L30.4746 35.2352L30.4727 30.4725H35.2447L35.416 30.4572C35.8048 30.3866 36.1113 30.08 36.1818 29.6912L36.1973 29.5199L36.1818 29.3487C36.1113 28.9599 35.8048 28.6533 35.416 28.5828L35.2447 28.5674H30.4727L30.4746 23.8047L30.4592 23.6334C30.3887 23.2446 30.0821 22.9381 29.6933 22.8676L29.522 22.8522ZM15.2339 0C20.4946 0 24.7593 4.26466 24.7593 9.52541C24.7593 14.7861 20.4946 19.0508 15.2339 19.0508C9.97317 19.0508 5.7085 14.7861 5.7085 9.52541C5.7085 4.26466 9.97317 0 15.2339 0ZM15.2339 2.85762C11.5514 2.85762 8.56613 5.84289 8.56613 9.52541C8.56613 13.2079 11.5514 16.1931 15.2339 16.1931C18.9164 16.1931 21.9017 13.2079 21.9017 9.52541C21.9017 5.84289 18.9164 2.85762 15.2339 2.85762Z" fill="#687276"/>
<ellipse cx="29.1667" cy="30.0001" rx="9.16667" ry="8.33333" fill="#687276"/>
<path fill-rule="evenodd" clip-rule="evenodd" d="M34.8545 31.7917C34.917 31.6667 35.042 31.5417 35.292 31.5417C36.3545 31.5417 37.167 30.7292 37.167 29.6667C37.167 28.6042 36.3545 27.7917 35.292 27.7917H35.167C35.042 27.7917 34.917 27.7292 34.8545 27.6042C34.8545 27.5417 34.8545 27.5417 34.792 27.4792C34.7295 27.3542 34.7295 27.1667 34.917 26.9792C35.667 26.2292 35.667 25.0417 34.917 24.3542C34.542 23.9792 34.1045 23.7917 33.6045 23.7917C33.1045 23.7917 32.6045 23.9792 32.2295 24.3542C32.1045 24.4792 31.917 24.4792 31.792 24.4167C31.667 24.4167 31.542 24.2292 31.542 24.0417C31.542 22.9792 30.7295 22.1667 29.667 22.1667C28.6045 22.1667 27.792 22.9792 27.792 24.0417V24.1667C27.792 24.2917 27.7295 24.4167 27.6045 24.4792C27.5779 24.4792 27.5627 24.4792 27.5491 24.484C27.5307 24.4905 27.5154 24.5058 27.4795 24.5417C27.3545 24.6042 27.167 24.5417 26.9795 24.4167C26.2295 23.6667 25.042 23.6667 24.3545 24.4167C23.6045 25.1667 23.6045 26.3542 24.417 27.1042C24.542 27.2292 24.542 27.4167 24.4795 27.6042C24.417 27.7292 24.2295 27.8542 24.042 27.8542C22.9795 27.8542 22.167 28.6667 22.167 29.7292C22.167 30.7917 22.9795 31.6042 24.042 31.6042H24.167C24.3545 31.6042 24.4795 31.7292 24.542 31.8542C24.6045 31.9792 24.6045 32.1667 24.417 32.3542C24.042 32.7292 23.8545 33.1667 23.8545 33.6667C23.8545 34.1667 24.042 34.6042 24.417 34.9792C25.167 35.7292 26.3545 35.7292 27.1045 34.9167C27.2295 34.7917 27.417 34.7917 27.6045 34.8542C27.792 34.9167 27.8545 35.0417 27.8545 35.2917C27.8545 36.3542 28.667 37.1667 29.7295 37.1667C30.792 37.1667 31.6045 36.3542 31.6045 35.2917V35.1667C31.6045 34.9792 31.7295 34.8542 31.8545 34.7917C31.9795 34.7292 32.167 34.7292 32.3545 34.9167C33.1045 35.6667 34.292 35.6667 34.9795 34.9167C35.7295 34.1667 35.7295 32.9792 34.917 32.2292C34.8545 32.1042 34.792 31.9167 34.8545 31.7917ZM27.167 29.6667C27.167 28.2917 28.292 27.1667 29.667 27.1667C31.042 27.1667 32.167 28.2917 32.167 29.6667C32.167 31.0417 31.042 32.1667 29.667 32.1667C28.292 32.1667 27.167 31.0417 27.167 29.6667ZM28.417 29.6667C28.417 30.3542 28.9795 30.9167 29.667 30.9167C30.3545 30.9167 30.917 30.3542 30.917 29.6667C30.917 28.9792 30.3545 28.4167 29.667 28.4167C28.9795 28.4167 28.417 28.9792 28.417 29.6667ZM34.1045 33.1667C33.6045 32.6042 33.4795 31.9167 33.7295 31.2917C33.9795 30.6667 34.6045 30.2917 35.2295 30.2917C35.667 30.2917 35.917 30.0417 35.917 29.6667C35.917 29.2917 35.667 29.0417 35.292 29.0417H35.167C34.542 29.0417 33.917 28.6667 33.667 28.0417C33.6045 27.9792 33.6045 27.9167 33.6045 27.8542C33.417 27.2917 33.542 26.6042 33.9795 26.1667C34.292 25.8542 34.292 25.4792 34.042 25.2292C33.917 25.1042 33.792 25.0417 33.6045 25.0417C33.417 25.0417 33.292 25.1042 33.167 25.2292C32.6045 25.7292 31.917 25.8542 31.292 25.6042C30.667 25.3542 30.292 24.7917 30.292 24.1042C30.292 23.6667 30.042 23.4167 29.667 23.4167C29.292 23.4167 29.042 23.6667 29.042 24.0417V24.1667C29.042 24.7917 28.667 25.4167 28.042 25.6667C27.9795 25.7292 27.917 25.7292 27.8545 25.7292C27.292 25.9167 26.6045 25.7917 26.167 25.3542C25.8545 25.0417 25.4795 25.0417 25.2295 25.2917C24.9795 25.5417 24.9795 25.9167 25.2295 26.1667C25.7295 26.7292 25.8545 27.4167 25.6045 28.0417C25.3545 28.6667 24.792 29.1042 24.1045 29.1042H24.042C23.667 29.1042 23.417 29.3542 23.417 29.7292C23.417 30.1042 23.667 30.3542 24.042 30.3542H24.167C24.792 30.3542 25.417 30.7292 25.667 31.3542C25.9795 31.9792 25.8545 32.6667 25.3545 33.1667C25.167 33.3542 25.1045 33.4792 25.1045 33.6667C25.1045 33.8542 25.167 33.9792 25.292 34.1042C25.542 34.3542 25.917 34.3542 26.167 34.1042C26.4795 33.7917 26.917 33.6042 27.3545 33.6042C27.6045 33.6042 27.8545 33.6042 28.042 33.7292C28.667 33.9792 29.1045 34.5417 29.1045 35.2292V35.2917C29.1045 35.6667 29.3545 35.9167 29.7295 35.9167C30.1045 35.9167 30.3545 35.6667 30.3545 35.2917V35.1667C30.3545 34.5417 30.7295 33.9167 31.3545 33.6667C31.9795 33.3542 32.667 33.4792 33.167 33.9792C33.3545 34.1667 33.4795 34.2292 33.667 34.2292C33.8545 34.2292 33.9795 34.1667 34.1045 34.0417C34.2295 33.9167 34.292 33.7917 34.292 33.6042C34.292 33.4167 34.2295 33.2917 34.1045 33.1667Z" fill="#333333"/>
<mask id="mask0_587_11191" style="mask-type:luminance" maskUnits="userSpaceOnUse" x="22" y="22" width="16" height="16">
<path fill-rule="evenodd" clip-rule="evenodd" d="M34.8545 31.7917C34.917 31.6667 35.042 31.5417 35.292 31.5417C36.3545 31.5417 37.167 30.7292 37.167 29.6667C37.167 28.6042 36.3545 27.7917 35.292 27.7917H35.167C35.042 27.7917 34.917 27.7292 34.8545 27.6042C34.8545 27.5417 34.8545 27.5417 34.792 27.4792C34.7295 27.3542 34.7295 27.1667 34.917 26.9792C35.667 26.2292 35.667 25.0417 34.917 24.3542C34.542 23.9792 34.1045 23.7917 33.6045 23.7917C33.1045 23.7917 32.6045 23.9792 32.2295 24.3542C32.1045 24.4792 31.917 24.4792 31.792 24.4167C31.667 24.4167 31.542 24.2292 31.542 24.0417C31.542 22.9792 30.7295 22.1667 29.667 22.1667C28.6045 22.1667 27.792 22.9792 27.792 24.0417V24.1667C27.792 24.2917 27.7295 24.4167 27.6045 24.4792C27.5779 24.4792 27.5627 24.4792 27.5491 24.484C27.5307 24.4905 27.5154 24.5058 27.4795 24.5417C27.3545 24.6042 27.167 24.5417 26.9795 24.4167C26.2295 23.6667 25.042 23.6667 24.3545 24.4167C23.6045 25.1667 23.6045 26.3542 24.417 27.1042C24.542 27.2292 24.542 27.4167 24.4795 27.6042C24.417 27.7292 24.2295 27.8542 24.042 27.8542C22.9795 27.8542 22.167 28.6667 22.167 29.7292C22.167 30.7917 22.9795 31.6042 24.042 31.6042H24.167C24.3545 31.6042 24.4795 31.7292 24.542 31.8542C24.6045 31.9792 24.6045 32.1667 24.417 32.3542C24.042 32.7292 23.8545 33.1667 23.8545 33.6667C23.8545 34.1667 24.042 34.6042 24.417 34.9792C25.167 35.7292 26.3545 35.7292 27.1045 34.9167C27.2295 34.7917 27.417 34.7917 27.6045 34.8542C27.792 34.9167 27.8545 35.0417 27.8545 35.2917C27.8545 36.3542 28.667 37.1667 29.7295 37.1667C30.792 37.1667 31.6045 36.3542 31.6045 35.2917V35.1667C31.6045 34.9792 31.7295 34.8542 31.8545 34.7917C31.9795 34.7292 32.167 34.7292 32.3545 34.9167C33.1045 35.6667 34.292 35.6667 34.9795 34.9167C35.7295 34.1667 35.7295 32.9792 34.917 32.2292C34.8545 32.1042 34.792 31.9167 34.8545 31.7917ZM27.167 29.6667C27.167 28.2917 28.292 27.1667 29.667 27.1667C31.042 27.1667 32.167 28.2917 32.167 29.6667C32.167 31.0417 31.042 32.1667 29.667 32.1667C28.292 32.1667 27.167 31.0417 27.167 29.6667ZM28.417 29.6667C28.417 30.3542 28.9795 30.9167 29.667 30.9167C30.3545 30.9167 30.917 30.3542 30.917 29.6667C30.917 28.9792 30.3545 28.4167 29.667 28.4167C28.9795 28.4167 28.417 28.9792 28.417 29.6667ZM34.1045 33.1667C33.6045 32.6042 33.4795 31.9167 33.7295 31.2917C33.9795 30.6667 34.6045 30.2917 35.2295 30.2917C35.667 30.2917 35.917 30.0417 35.917 29.6667C35.917 29.2917 35.667 29.0417 35.292 29.0417H35.167C34.542 29.0417 33.917 28.6667 33.667 28.0417C33.6045 27.9792 33.6045 27.9167 33.6045 27.8542C33.417 27.2917 33.542 26.6042 33.9795 26.1667C34.292 25.8542 34.292 25.4792 34.042 25.2292C33.917 25.1042 33.792 25.0417 33.6045 25.0417C33.417 25.0417 33.292 25.1042 33.167 25.2292C32.6045 25.7292 31.917 25.8542 31.292 25.6042C30.667 25.3542 30.292 24.7917 30.292 24.1042C30.292 23.6667 30.042 23.4167 29.667 23.4167C29.292 23.4167 29.042 23.6667 29.042 24.0417V24.1667C29.042 24.7917 28.667 25.4167 28.042 25.6667C27.9795 25.7292 27.917 25.7292 27.8545 25.7292C27.292 25.9167 26.6045 25.7917 26.167 25.3542C25.8545 25.0417 25.4795 25.0417 25.2295 25.2917C24.9795 25.5417 24.9795 25.9167 25.2295 26.1667C25.7295 26.7292 25.8545 27.4167 25.6045 28.0417C25.3545 28.6667 24.792 29.1042 24.1045 29.1042H24.042C23.667 29.1042 23.417 29.3542 23.417 29.7292C23.417 30.1042 23.667 30.3542 24.042 30.3542H24.167C24.792 30.3542 25.417 30.7292 25.667 31.3542C25.9795 31.9792 25.8545 32.6667 25.3545 33.1667C25.167 33.3542 25.1045 33.4792 25.1045 33.6667C25.1045 33.8542 25.167 33.9792 25.292 34.1042C25.542 34.3542 25.917 34.3542 26.167 34.1042C26.4795 33.7917 26.917 33.6042 27.3545 33.6042C27.6045 33.6042 27.8545 33.6042 28.042 33.7292C28.667 33.9792 29.1045 34.5417 29.1045 35.2292V35.2917C29.1045 35.6667 29.3545 35.9167 29.7295 35.9167C30.1045 35.9167 30.3545 35.6667 30.3545 35.2917V35.1667C30.3545 34.5417 30.7295 33.9167 31.3545 33.6667C31.9795 33.3542 32.667 33.4792 33.167 33.9792C33.3545 34.1667 33.4795 34.2292 33.667 34.2292C33.8545 34.2292 33.9795 34.1667 34.1045 34.0417C34.2295 33.9167 34.292 33.7917 34.292 33.6042C34.292 33.4167 34.2295 33.2917 34.1045 33.1667Z" fill="white"/>
</mask>
<g mask="url(#mask0_587_11191)">
<rect x="22.167" y="22.1667" width="15" height="15" fill="white"/>
</g>
</svg>
