<svg width="35" height="35" viewBox="0 0 35 35" fill="none" xmlns="http://www.w3.org/2000/svg">
<path fill-rule="evenodd" clip-rule="evenodd" d="M6.85417 25.8124L15.6042 17.0624C16.1875 16.4791 16.1875 15.6041 15.6042 15.0208L6.85417 6.27075C6.27083 5.68742 5.39583 5.68742 4.8125 6.27075C4.22917 6.85409 4.22917 7.72909 4.8125 8.31242L12.5417 16.0416L4.8125 23.7708C4.22917 24.3541 4.22917 25.2291 4.8125 25.8124C5.10417 26.1041 5.39583 26.2499 5.83333 26.2499C6.27083 26.2499 6.5625 26.1041 6.85417 25.8124ZM17.5 26.2499H29.1667C30.0417 26.2499 30.625 26.8333 30.625 27.7083C30.625 28.5833 30.0417 29.1666 29.1667 29.1666H17.5C16.625 29.1666 16.0417 28.5833 16.0417 27.7083C16.0417 26.8333 16.625 26.2499 17.5 26.2499Z" fill="#0088D4"/>
<mask id="mask0_308_4963" style="mask-type:luminance" maskUnits="userSpaceOnUse" x="4" y="5" width="27" height="25">
<path fill-rule="evenodd" clip-rule="evenodd" d="M6.85417 25.8124L15.6042 17.0624C16.1875 16.4791 16.1875 15.6041 15.6042 15.0208L6.85417 6.27075C6.27083 5.68742 5.39583 5.68742 4.8125 6.27075C4.22917 6.85409 4.22917 7.72909 4.8125 8.31242L12.5417 16.0416L4.8125 23.7708C4.22917 24.3541 4.22917 25.2291 4.8125 25.8124C5.10417 26.1041 5.39583 26.2499 5.83333 26.2499C6.27083 26.2499 6.5625 26.1041 6.85417 25.8124ZM17.5 26.2499H29.1667C30.0417 26.2499 30.625 26.8333 30.625 27.7083C30.625 28.5833 30.0417 29.1666 29.1667 29.1666H17.5C16.625 29.1666 16.0417 28.5833 16.0417 27.7083C16.0417 26.8333 16.625 26.2499 17.5 26.2499Z" fill="white"/>
</mask>
<g mask="url(#mask0_308_4963)">
<rect width="35" height="35" fill="#0088D4"/>
</g>
</svg>
