<svg width="46" height="47" viewBox="0 0 46 47" fill="none" xmlns="http://www.w3.org/2000/svg">
<path d="M23 6.68932L28.8047 15.7798H17.0857L23 6.68932ZM23 0.446493C22.6237 0.462642 22.2571 0.570959 21.9324 0.761928C21.6078 0.952896 21.335 1.22067 21.1381 1.54173L11.1715 16.875C11.0065 17.2165 10.9209 17.5909 10.9209 17.9702C10.9209 18.3495 11.0065 18.7239 11.1715 19.0655C11.3518 19.4009 11.6208 19.6805 11.9492 19.8736C12.2775 20.0667 12.6525 20.166 13.0333 20.1607H32.8571C33.2334 20.1445 33.5999 20.0362 33.9246 19.8453C34.2492 19.6543 34.522 19.3865 34.719 19.0655C34.9356 18.7413 35.0512 18.3601 35.0512 17.9702C35.0512 17.5803 34.9356 17.1992 34.719 16.875L24.8619 1.54173C24.6815 1.20625 24.4125 0.92672 24.0842 0.733596C23.7559 0.540473 23.3808 0.441164 23 0.446493Z" fill="#687276"/>
<path d="M43.8089 45.3509H28.4756C27.8947 45.3509 27.3375 45.1201 26.9267 44.7093C26.5159 44.2986 26.2852 43.7414 26.2852 43.1604V27.8272C26.2852 27.2462 26.5159 26.6891 26.9267 26.2783C27.3375 25.8675 27.8947 25.6367 28.4756 25.6367H43.8089C44.3898 25.6367 44.947 25.8675 45.3578 26.2783C45.7686 26.6891 45.9994 27.2462 45.9994 27.8272V43.1604C45.9994 43.7414 45.7686 44.2986 45.3578 44.7093C44.947 45.1201 44.3898 45.3509 43.8089 45.3509ZM30.6661 40.97H41.6184V30.0177H30.6661V40.97Z" fill="#687276"/>
<path d="M10.9523 28.9229C12.252 28.9229 13.5225 29.3083 14.6032 30.0304C15.6839 30.7525 16.5261 31.7788 17.0235 32.9796C17.5209 34.1803 17.651 35.5016 17.3975 36.7763C17.1439 38.0511 16.518 39.222 15.599 40.141C14.68 41.06 13.5091 41.6859 12.2344 41.9395C10.9596 42.193 9.63834 42.0629 8.43757 41.5655C7.2368 41.0681 6.21049 40.2259 5.48842 39.1452C4.76634 38.0645 4.38094 36.794 4.38094 35.4943C4.38094 33.7515 5.07328 32.08 6.30565 30.8476C7.53803 29.6153 9.20949 28.9229 10.9523 28.9229ZM10.9523 24.542C8.78617 24.542 6.66865 25.1843 4.86755 26.3878C3.06644 27.5913 1.66266 29.3018 0.833701 31.303C0.00474547 33.3043 -0.212147 35.5065 0.210451 37.631C0.633049 39.7556 1.67616 41.7071 3.20787 43.2388C4.73958 44.7705 6.6911 45.8136 8.81564 46.2362C10.9402 46.6588 13.1423 46.4419 15.1436 45.613C17.1449 44.784 18.8554 43.3802 20.0589 41.5791C21.2623 39.778 21.9047 37.6605 21.9047 35.4943C21.9047 34.056 21.6214 32.6318 21.071 31.303C20.5206 29.9743 19.7138 28.7669 18.6968 27.7499C17.6798 26.7328 16.4724 25.9261 15.1436 25.3757C13.8148 24.8253 12.3906 24.542 10.9523 24.542Z" fill="#687276"/>
</svg>
