<svg width="46" height="47" viewBox="0 0 46 47" fill="none" xmlns="http://www.w3.org/2000/svg">
<path fill-rule="evenodd" clip-rule="evenodd" d="M3.83398 19.613C3.83398 9.07129 12.459 0.446289 23.0007 0.446289C33.5423 0.446289 42.1673 9.07129 42.1673 19.613C42.1673 33.7963 24.7257 45.6796 24.1507 46.063C23.7673 46.2546 23.384 46.4463 23.0007 46.4463C22.6173 46.4463 22.234 46.2546 21.8507 46.063C21.2757 45.6796 3.83398 33.7963 3.83398 19.613ZM7.66732 19.613C7.66732 29.963 19.359 39.5463 23.0007 42.2296C26.6423 39.5463 38.334 29.963 38.334 19.613C38.334 11.1796 31.434 4.27962 23.0007 4.27962C14.5673 4.27962 7.66732 11.1796 7.66732 19.613ZM23.0007 11.9463C18.784 11.9463 15.334 15.3963 15.334 19.613C15.334 23.8296 18.784 27.2796 23.0007 27.2796C27.2173 27.2796 30.6673 23.8296 30.6673 19.613C30.6673 15.3963 27.2173 11.9463 23.0007 11.9463ZM19.1673 19.613C19.1673 21.7213 20.8923 23.4463 23.0007 23.4463C25.109 23.4463 26.834 21.7213 26.834 19.613C26.834 17.5046 25.109 15.7796 23.0007 15.7796C20.8923 15.7796 19.1673 17.5046 19.1673 19.613Z" fill="#687276"/>
<mask id="mask0_423_6409" style="mask-type:luminance" maskUnits="userSpaceOnUse" x="3" y="0" width="40" height="47">
<path fill-rule="evenodd" clip-rule="evenodd" d="M3.83398 19.613C3.83398 9.07129 12.459 0.446289 23.0007 0.446289C33.5423 0.446289 42.1673 9.07129 42.1673 19.613C42.1673 33.7963 24.7257 45.6796 24.1507 46.063C23.7673 46.2546 23.384 46.4463 23.0007 46.4463C22.6173 46.4463 22.234 46.2546 21.8507 46.063C21.2757 45.6796 3.83398 33.7963 3.83398 19.613ZM7.66732 19.613C7.66732 29.963 19.359 39.5463 23.0007 42.2296C26.6423 39.5463 38.334 29.963 38.334 19.613C38.334 11.1796 31.434 4.27962 23.0007 4.27962C14.5673 4.27962 7.66732 11.1796 7.66732 19.613ZM23.0007 11.9463C18.784 11.9463 15.334 15.3963 15.334 19.613C15.334 23.8296 18.784 27.2796 23.0007 27.2796C27.2173 27.2796 30.6673 23.8296 30.6673 19.613C30.6673 15.3963 27.2173 11.9463 23.0007 11.9463ZM19.1673 19.613C19.1673 21.7213 20.8923 23.4463 23.0007 23.4463C25.109 23.4463 26.834 21.7213 26.834 19.613C26.834 17.5046 25.109 15.7796 23.0007 15.7796C20.8923 15.7796 19.1673 17.5046 19.1673 19.613Z" fill="white"/>
</mask>
<g mask="url(#mask0_423_6409)">
<rect y="0.446289" width="46" height="46" fill="#687276"/>
</g>
</svg>
