<svg width="30" height="30" viewBox="0 0 30 30" fill="none" xmlns="http://www.w3.org/2000/svg">
<path fill-rule="evenodd" clip-rule="evenodd" d="M25.375 19.25C25.5 19 25.75 18.75 26.25 18.75C28.375 18.75 30 17.125 30 15C30 12.875 28.375 11.25 26.25 11.25H26C25.75 11.25 25.5 11.125 25.375 10.875C25.375 10.75 25.375 10.75 25.25 10.625C25.125 10.375 25.125 10 25.5 9.625C27 8.125 27 5.75 25.5 4.375C24.75 3.625 23.875 3.25 22.875 3.25C21.875 3.25 20.875 3.625 20.125 4.375C19.875 4.625 19.5 4.625 19.25 4.5C19 4.5 18.75 4.125 18.75 3.75C18.75 1.625 17.125 0 15 0C12.875 0 11.25 1.625 11.25 3.75V4C11.25 4.25 11.125 4.5 10.875 4.625C10.8219 4.625 10.7913 4.625 10.7642 4.63459C10.7274 4.64757 10.6969 4.67812 10.625 4.75C10.375 4.875 10 4.75 9.625 4.5C8.125 3 5.75 3 4.375 4.5C2.875 6 2.875 8.375 4.5 9.875C4.75 10.125 4.75 10.5 4.625 10.875C4.5 11.125 4.125 11.375 3.75 11.375C1.625 11.375 0 13 0 15.125C0 17.25 1.625 18.875 3.75 18.875H4C4.375 18.875 4.625 19.125 4.75 19.375C4.875 19.625 4.875 20 4.5 20.375C3.75 21.125 3.375 22 3.375 23C3.375 24 3.75 24.875 4.5 25.625C6 27.125 8.375 27.125 9.875 25.5C10.125 25.25 10.5 25.25 10.875 25.375C11.25 25.5 11.375 25.75 11.375 26.25C11.375 28.375 13 30 15.125 30C17.25 30 18.875 28.375 18.875 26.25V26C18.875 25.625 19.125 25.375 19.375 25.25C19.625 25.125 20 25.125 20.375 25.5C21.875 27 24.25 27 25.625 25.5C27.125 24 27.125 21.625 25.5 20.125C25.375 19.875 25.25 19.5 25.375 19.25ZM10 15C10 12.25 12.25 10 15 10C17.75 10 20 12.25 20 15C20 17.75 17.75 20 15 20C12.25 20 10 17.75 10 15ZM12.5 15C12.5 16.375 13.625 17.5 15 17.5C16.375 17.5 17.5 16.375 17.5 15C17.5 13.625 16.375 12.5 15 12.5C13.625 12.5 12.5 13.625 12.5 15ZM23.875 22C22.875 20.875 22.625 19.5 23.125 18.25C23.625 17 24.875 16.25 26.125 16.25C27 16.25 27.5 15.75 27.5 15C27.5 14.25 27 13.75 26.25 13.75H26C24.75 13.75 23.5 13 23 11.75C22.875 11.625 22.875 11.5 22.875 11.375C22.5 10.25 22.75 8.875 23.625 8C24.25 7.375 24.25 6.625 23.75 6.125C23.5 5.875 23.25 5.75 22.875 5.75C22.5 5.75 22.25 5.875 22 6.125C20.875 7.125 19.5 7.375 18.25 6.875C17 6.375 16.25 5.25 16.25 3.875C16.25 3 15.75 2.5 15 2.5C14.25 2.5 13.75 3 13.75 3.75V4C13.75 5.25 13 6.5 11.75 7C11.625 7.125 11.5 7.125 11.375 7.125C10.25 7.5 8.875 7.25 8 6.375C7.375 5.75 6.625 5.75 6.125 6.25C5.625 6.75 5.625 7.5 6.125 8C7.125 9.125 7.375 10.5 6.875 11.75C6.375 13 5.25 13.875 3.875 13.875H3.75C3 13.875 2.5 14.375 2.5 15.125C2.5 15.875 3 16.375 3.75 16.375H4C5.25 16.375 6.5 17.125 7 18.375C7.625 19.625 7.375 21 6.375 22C6 22.375 5.875 22.625 5.875 23C5.875 23.375 6 23.625 6.25 23.875C6.75 24.375 7.5 24.375 8 23.875C8.625 23.25 9.5 22.875 10.375 22.875C10.875 22.875 11.375 22.875 11.75 23.125C13 23.625 13.875 24.75 13.875 26.125V26.25C13.875 27 14.375 27.5 15.125 27.5C15.875 27.5 16.375 27 16.375 26.25V26C16.375 24.75 17.125 23.5 18.375 23C19.625 22.375 21 22.625 22 23.625C22.375 24 22.625 24.125 23 24.125C23.375 24.125 23.625 24 23.875 23.75C24.125 23.5 24.25 23.25 24.25 22.875C24.25 22.5 24.125 22.25 23.875 22Z" fill="white"/>
<mask id="mask0_847_864" style="mask-type:luminance" maskUnits="userSpaceOnUse" x="0" y="0" width="30" height="30">
<path fill-rule="evenodd" clip-rule="evenodd" d="M25.375 19.25C25.5 19 25.75 18.75 26.25 18.75C28.375 18.75 30 17.125 30 15C30 12.875 28.375 11.25 26.25 11.25H26C25.75 11.25 25.5 11.125 25.375 10.875C25.375 10.75 25.375 10.75 25.25 10.625C25.125 10.375 25.125 10 25.5 9.625C27 8.125 27 5.75 25.5 4.375C24.75 3.625 23.875 3.25 22.875 3.25C21.875 3.25 20.875 3.625 20.125 4.375C19.875 4.625 19.5 4.625 19.25 4.5C19 4.5 18.75 4.125 18.75 3.75C18.75 1.625 17.125 0 15 0C12.875 0 11.25 1.625 11.25 3.75V4C11.25 4.25 11.125 4.5 10.875 4.625C10.8219 4.625 10.7913 4.625 10.7642 4.63459C10.7274 4.64757 10.6969 4.67812 10.625 4.75C10.375 4.875 10 4.75 9.625 4.5C8.125 3 5.75 3 4.375 4.5C2.875 6 2.875 8.375 4.5 9.875C4.75 10.125 4.75 10.5 4.625 10.875C4.5 11.125 4.125 11.375 3.75 11.375C1.625 11.375 0 13 0 15.125C0 17.25 1.625 18.875 3.75 18.875H4C4.375 18.875 4.625 19.125 4.75 19.375C4.875 19.625 4.875 20 4.5 20.375C3.75 21.125 3.375 22 3.375 23C3.375 24 3.75 24.875 4.5 25.625C6 27.125 8.375 27.125 9.875 25.5C10.125 25.25 10.5 25.25 10.875 25.375C11.25 25.5 11.375 25.75 11.375 26.25C11.375 28.375 13 30 15.125 30C17.25 30 18.875 28.375 18.875 26.25V26C18.875 25.625 19.125 25.375 19.375 25.25C19.625 25.125 20 25.125 20.375 25.5C21.875 27 24.25 27 25.625 25.5C27.125 24 27.125 21.625 25.5 20.125C25.375 19.875 25.25 19.5 25.375 19.25ZM10 15C10 12.25 12.25 10 15 10C17.75 10 20 12.25 20 15C20 17.75 17.75 20 15 20C12.25 20 10 17.75 10 15ZM12.5 15C12.5 16.375 13.625 17.5 15 17.5C16.375 17.5 17.5 16.375 17.5 15C17.5 13.625 16.375 12.5 15 12.5C13.625 12.5 12.5 13.625 12.5 15ZM23.875 22C22.875 20.875 22.625 19.5 23.125 18.25C23.625 17 24.875 16.25 26.125 16.25C27 16.25 27.5 15.75 27.5 15C27.5 14.25 27 13.75 26.25 13.75H26C24.75 13.75 23.5 13 23 11.75C22.875 11.625 22.875 11.5 22.875 11.375C22.5 10.25 22.75 8.875 23.625 8C24.25 7.375 24.25 6.625 23.75 6.125C23.5 5.875 23.25 5.75 22.875 5.75C22.5 5.75 22.25 5.875 22 6.125C20.875 7.125 19.5 7.375 18.25 6.875C17 6.375 16.25 5.25 16.25 3.875C16.25 3 15.75 2.5 15 2.5C14.25 2.5 13.75 3 13.75 3.75V4C13.75 5.25 13 6.5 11.75 7C11.625 7.125 11.5 7.125 11.375 7.125C10.25 7.5 8.875 7.25 8 6.375C7.375 5.75 6.625 5.75 6.125 6.25C5.625 6.75 5.625 7.5 6.125 8C7.125 9.125 7.375 10.5 6.875 11.75C6.375 13 5.25 13.875 3.875 13.875H3.75C3 13.875 2.5 14.375 2.5 15.125C2.5 15.875 3 16.375 3.75 16.375H4C5.25 16.375 6.5 17.125 7 18.375C7.625 19.625 7.375 21 6.375 22C6 22.375 5.875 22.625 5.875 23C5.875 23.375 6 23.625 6.25 23.875C6.75 24.375 7.5 24.375 8 23.875C8.625 23.25 9.5 22.875 10.375 22.875C10.875 22.875 11.375 22.875 11.75 23.125C13 23.625 13.875 24.75 13.875 26.125V26.25C13.875 27 14.375 27.5 15.125 27.5C15.875 27.5 16.375 27 16.375 26.25V26C16.375 24.75 17.125 23.5 18.375 23C19.625 22.375 21 22.625 22 23.625C22.375 24 22.625 24.125 23 24.125C23.375 24.125 23.625 24 23.875 23.75C24.125 23.5 24.25 23.25 24.25 22.875C24.25 22.5 24.125 22.25 23.875 22Z" fill="white"/>
</mask>
<g mask="url(#mask0_847_864)">
<rect width="30" height="30" fill="white"/>
</g>
</svg>
