<svg width="38" height="38" viewBox="0 0 38 38" fill="none" xmlns="http://www.w3.org/2000/svg">
<path fill-rule="evenodd" clip-rule="evenodd" d="M33.0917 13.6166C33.0125 13.5374 32.9729 13.4583 32.9333 13.3791C32.8938 13.2999 32.8542 13.2208 32.775 13.1416L21.6917 2.05825C21.5333 1.89992 21.375 1.74159 21.2167 1.74159C21.0583 1.58325 20.7417 1.58325 20.5833 1.58325H9.5C6.80833 1.58325 4.75 3.64159 4.75 6.33325V31.6666C4.75 34.3583 6.80833 36.4166 9.5 36.4166H28.5C31.1917 36.4166 33.25 34.3583 33.25 31.6666V14.2499C33.25 14.0916 33.25 13.7749 33.0917 13.6166ZM22.1667 6.96659L27.8667 12.6666H22.1667V6.96659ZM9.5 33.2499H28.5C29.45 33.2499 30.0833 32.6166 30.0833 31.6666V15.8333H20.5833C19.6333 15.8333 19 15.1999 19 14.2499V4.74992H9.5C8.55 4.74992 7.91667 5.38325 7.91667 6.33325V31.6666C7.91667 32.6166 8.55 33.2499 9.5 33.2499Z" fill="#333333"/>
<mask id="mask0_587_11162" style="mask-type:luminance" maskUnits="userSpaceOnUse" x="4" y="1" width="30" height="36">
<path fill-rule="evenodd" clip-rule="evenodd" d="M33.0917 13.6166C33.0125 13.5374 32.9729 13.4583 32.9333 13.3791C32.8938 13.2999 32.8542 13.2208 32.775 13.1416L21.6917 2.05825C21.5333 1.89992 21.375 1.74159 21.2167 1.74159C21.0583 1.58325 20.7417 1.58325 20.5833 1.58325H9.5C6.80833 1.58325 4.75 3.64159 4.75 6.33325V31.6666C4.75 34.3583 6.80833 36.4166 9.5 36.4166H28.5C31.1917 36.4166 33.25 34.3583 33.25 31.6666V14.2499C33.25 14.0916 33.25 13.7749 33.0917 13.6166ZM22.1667 6.96659L27.8667 12.6666H22.1667V6.96659ZM9.5 33.2499H28.5C29.45 33.2499 30.0833 32.6166 30.0833 31.6666V15.8333H20.5833C19.6333 15.8333 19 15.1999 19 14.2499V4.74992H9.5C8.55 4.74992 7.91667 5.38325 7.91667 6.33325V31.6666C7.91667 32.6166 8.55 33.2499 9.5 33.2499Z" fill="white"/>
</mask>
<g mask="url(#mask0_587_11162)">
<rect width="38" height="38" fill="#333333"/>
</g>
</svg>
