<svg width="46" height="47" viewBox="0 0 46 47" fill="none" xmlns="http://www.w3.org/2000/svg">
<path d="M39.675 15.2046L18.5917 36.288C18.2083 36.6713 17.825 36.863 17.25 36.863C16.675 36.863 16.2917 36.6713 15.9083 36.288L6.325 26.7046C5.55833 25.938 5.55833 24.788 6.325 24.0213C7.09167 23.2546 8.24167 23.2546 9.00833 24.0213L17.25 32.263L36.9917 12.5213C37.7583 11.7546 38.9083 11.7546 39.675 12.5213C40.4417 13.288 40.4417 14.438 39.675 15.2046Z" fill="#333333"/>
<mask id="mask0_423_6427" style="mask-type:luminance" maskUnits="userSpaceOnUse" x="5" y="11" width="36" height="26">
<path d="M39.675 15.2046L18.5917 36.288C18.2083 36.6713 17.825 36.863 17.25 36.863C16.675 36.863 16.2917 36.6713 15.9083 36.288L6.325 26.7046C5.55833 25.938 5.55833 24.788 6.325 24.0213C7.09167 23.2546 8.24167 23.2546 9.00833 24.0213L17.25 32.263L36.9917 12.5213C37.7583 11.7546 38.9083 11.7546 39.675 12.5213C40.4417 13.288 40.4417 14.438 39.675 15.2046Z" fill="white"/>
</mask>
<g mask="url(#mask0_423_6427)">
<rect y="0.446289" width="46" height="46" fill="#687276"/>
</g>
</svg>
