<svg width="40" height="40" viewBox="0 0 40 40" fill="none" xmlns="http://www.w3.org/2000/svg">
<path fill-rule="evenodd" clip-rule="evenodd" d="M5.00016 11.6663H35.0002C36.0002 11.6663 36.6668 10.9997 36.6668 9.99967C36.6668 8.99967 36.0002 8.33301 35.0002 8.33301H5.00016C4.00016 8.33301 3.3335 8.99967 3.3335 9.99967C3.3335 10.9997 4.00016 11.6663 5.00016 11.6663ZM36.6668 19.9997C36.6668 20.9997 36.0002 21.6663 35.0002 21.6663H5.00016C4.00016 21.6663 3.3335 20.9997 3.3335 19.9997C3.3335 18.9997 4.00016 18.333 5.00016 18.333H35.0002C36.0002 18.333 36.6668 18.9997 36.6668 19.9997ZM5.00016 28.333H35.0002C36.0002 28.333 36.6668 28.9997 36.6668 29.9997C36.6668 30.9997 36.0002 31.6663 35.0002 31.6663H5.00016C4.00016 31.6663 3.3335 30.9997 3.3335 29.9997C3.3335 28.9997 4.00016 28.333 5.00016 28.333Z" fill="#1A2A2F"/>
<mask id="mask0_1601_6815" style="mask-type:luminance" maskUnits="userSpaceOnUse" x="3" y="8" width="34" height="24">
<path fill-rule="evenodd" clip-rule="evenodd" d="M5.00016 11.6663H35.0002C36.0002 11.6663 36.6668 10.9997 36.6668 9.99967C36.6668 8.99967 36.0002 8.33301 35.0002 8.33301H5.00016C4.00016 8.33301 3.3335 8.99967 3.3335 9.99967C3.3335 10.9997 4.00016 11.6663 5.00016 11.6663ZM36.6668 19.9997C36.6668 20.9997 36.0002 21.6663 35.0002 21.6663H5.00016C4.00016 21.6663 3.3335 20.9997 3.3335 19.9997C3.3335 18.9997 4.00016 18.333 5.00016 18.333H35.0002C36.0002 18.333 36.6668 18.9997 36.6668 19.9997ZM5.00016 28.333H35.0002C36.0002 28.333 36.6668 28.9997 36.6668 29.9997C36.6668 30.9997 36.0002 31.6663 35.0002 31.6663H5.00016C4.00016 31.6663 3.3335 30.9997 3.3335 29.9997C3.3335 28.9997 4.00016 28.333 5.00016 28.333Z" fill="white"/>
</mask>
<g mask="url(#mask0_1601_6815)">
<rect width="40" height="40" fill="#1A2A2F"/>
</g>
</svg>
