<svg width="40" height="40" viewBox="0 0 40 40" fill="none" xmlns="http://www.w3.org/2000/svg">
<path fill-rule="evenodd" clip-rule="evenodd" d="M5.00004 11.6667H35C36 11.6667 36.6667 11 36.6667 10C36.6667 9.00004 36 8.33337 35 8.33337H5.00004C4.00004 8.33337 3.33337 9.00004 3.33337 10C3.33337 11 4.00004 11.6667 5.00004 11.6667ZM36.6667 20C36.6667 21 36 21.6667 35 21.6667H5.00004C4.00004 21.6667 3.33337 21 3.33337 20C3.33337 19 4.00004 18.3334 5.00004 18.3334H35C36 18.3334 36.6667 19 36.6667 20ZM5.00004 28.3334H35C36 28.3334 36.6667 29 36.6667 30C36.6667 31 36 31.6667 35 31.6667H5.00004C4.00004 31.6667 3.33337 31 3.33337 30C3.33337 29 4.00004 28.3334 5.00004 28.3334Z" fill="white"/>
<mask id="mask0_560_9787" style="mask-type:luminance" maskUnits="userSpaceOnUse" x="3" y="8" width="34" height="24">
<path fill-rule="evenodd" clip-rule="evenodd" d="M5.00004 11.6667H35C36 11.6667 36.6667 11 36.6667 10C36.6667 9.00004 36 8.33337 35 8.33337H5.00004C4.00004 8.33337 3.33337 9.00004 3.33337 10C3.33337 11 4.00004 11.6667 5.00004 11.6667ZM36.6667 20C36.6667 21 36 21.6667 35 21.6667H5.00004C4.00004 21.6667 3.33337 21 3.33337 20C3.33337 19 4.00004 18.3334 5.00004 18.3334H35C36 18.3334 36.6667 19 36.6667 20ZM5.00004 28.3334H35C36 28.3334 36.6667 29 36.6667 30C36.6667 31 36 31.6667 35 31.6667H5.00004C4.00004 31.6667 3.33337 31 3.33337 30C3.33337 29 4.00004 28.3334 5.00004 28.3334Z" fill="white"/>
</mask>
<g mask="url(#mask0_560_9787)">
<rect width="40" height="40" fill="white"/>
</g>
</svg>
