<svg width="38" height="38" viewBox="0 0 38 38" fill="none" xmlns="http://www.w3.org/2000/svg">
<path fill-rule="evenodd" clip-rule="evenodd" d="M1.58334 18.9997C1.58334 9.34134 9.34167 1.58301 19 1.58301C28.6583 1.58301 36.4167 9.34134 36.4167 18.9997C36.4167 28.658 28.6583 36.4163 19 36.4163C9.34167 36.4163 1.58334 28.658 1.58334 18.9997ZM4.75 18.9997C4.75 26.9163 11.0833 33.2497 19 33.2497C26.9167 33.2497 33.25 26.9163 33.25 18.9997C33.25 11.083 26.9167 4.74967 19 4.74967C11.0833 4.74967 4.75 11.083 4.75 18.9997ZM26.2833 17.733L16.7833 11.3997C16.3083 11.083 15.675 11.083 15.2 11.3997C14.5667 11.558 14.25 12.033 14.25 12.6663V25.333C14.25 25.9663 14.5667 26.4413 15.0417 26.758C15.3583 26.9163 15.5167 26.9163 15.8333 26.9163C16.15 26.9163 16.4667 26.758 16.7833 26.5997L26.2833 20.2663C26.7583 19.9497 26.9167 19.4747 26.9167 18.9997C26.9167 18.5247 26.6 18.0497 26.2833 17.733ZM22.4833 18.9997L17.4167 15.6747V22.3247L22.4833 18.9997Z" fill="#333333"/>
<mask id="mask0_384_7465" style="mask-type:luminance" maskUnits="userSpaceOnUse" x="1" y="1" width="36" height="36">
<path fill-rule="evenodd" clip-rule="evenodd" d="M1.58334 18.9997C1.58334 9.34134 9.34167 1.58301 19 1.58301C28.6583 1.58301 36.4167 9.34134 36.4167 18.9997C36.4167 28.658 28.6583 36.4163 19 36.4163C9.34167 36.4163 1.58334 28.658 1.58334 18.9997ZM4.75 18.9997C4.75 26.9163 11.0833 33.2497 19 33.2497C26.9167 33.2497 33.25 26.9163 33.25 18.9997C33.25 11.083 26.9167 4.74967 19 4.74967C11.0833 4.74967 4.75 11.083 4.75 18.9997ZM26.2833 17.733L16.7833 11.3997C16.3083 11.083 15.675 11.083 15.2 11.3997C14.5667 11.558 14.25 12.033 14.25 12.6663V25.333C14.25 25.9663 14.5667 26.4413 15.0417 26.758C15.3583 26.9163 15.5167 26.9163 15.8333 26.9163C16.15 26.9163 16.4667 26.758 16.7833 26.5997L26.2833 20.2663C26.7583 19.9497 26.9167 19.4747 26.9167 18.9997C26.9167 18.5247 26.6 18.0497 26.2833 17.733ZM22.4833 18.9997L17.4167 15.6747V22.3247L22.4833 18.9997Z" fill="white"/>
</mask>
<g mask="url(#mask0_384_7465)">
<rect width="38" height="38" fill="#333333"/>
</g>
</svg>
