<svg width="26" height="26" viewBox="0 0 26 26" fill="none" xmlns="http://www.w3.org/2000/svg">
<path d="M18.0887 0.353516H7.90894C3.77191 0.353516 0.40625 3.71917 0.40625 7.8562V18.0359C0.40625 22.1728 3.77191 25.5387 7.90902 25.5387H18.0888C22.2256 25.5387 25.5915 22.173 25.5915 18.0359V7.8562C25.5914 3.71917 22.2257 0.353516 18.0887 0.353516ZM23.0578 18.036C23.0578 20.7803 20.8331 23.0051 18.0888 23.0051H7.90902C5.1647 23.0051 2.93995 20.7803 2.93995 18.036V7.85629C2.93995 5.11196 5.1647 2.88712 7.90902 2.88712H18.0888C20.8331 2.88712 23.0578 5.11205 23.0578 7.85629V18.036Z" fill="white"/>
<path d="M13.0002 6.43262C9.40855 6.43262 6.48633 9.35484 6.48633 12.9465C6.48633 16.5379 9.40855 19.4601 13.0002 19.4601C16.5919 19.4601 19.5139 16.5382 19.5139 12.9465C19.5139 9.35484 16.5919 6.43262 13.0002 6.43262ZM13.0002 16.9265C10.802 16.9265 9.01994 15.1448 9.01994 12.9465C9.01994 10.7482 10.802 8.96623 13.0002 8.96623C15.1984 8.96623 16.9802 10.7481 16.9802 12.9465C16.9802 15.1447 15.1984 16.9265 13.0002 16.9265Z" fill="white"/>
</svg>
