<svg width="35" height="35" viewBox="0 0 35 35" fill="none" xmlns="http://www.w3.org/2000/svg">
<path fill-rule="evenodd" clip-rule="evenodd" d="M26.2501 4.375C25.3751 4.375 24.7917 4.95833 24.7917 5.83333V29.1667C24.7917 30.0417 25.3751 30.625 26.2501 30.625C27.1251 30.625 27.7084 30.0417 27.7084 29.1667V5.83333C27.7084 4.95833 27.1251 4.375 26.2501 4.375ZM17.5001 13.125C18.3751 13.125 18.9584 13.7083 18.9584 14.5833V29.1667C18.9584 30.0417 18.3751 30.625 17.5001 30.625C16.6251 30.625 16.0417 30.0417 16.0417 29.1667V14.5833C16.0417 13.7083 16.6251 13.125 17.5001 13.125ZM7.29175 23.3333C7.29175 22.4583 7.87508 21.875 8.75008 21.875C9.62508 21.875 10.2084 22.4583 10.2084 23.3333V29.1667C10.2084 30.0417 9.62508 30.625 8.75008 30.625C7.87508 30.625 7.29175 30.0417 7.29175 29.1667V23.3333Z" fill="#0088D4"/>
<mask id="mask0_308_5008" style="mask-type:luminance" maskUnits="userSpaceOnUse" x="7" y="4" width="21" height="27">
<path fill-rule="evenodd" clip-rule="evenodd" d="M26.2501 4.375C25.3751 4.375 24.7917 4.95833 24.7917 5.83333V29.1667C24.7917 30.0417 25.3751 30.625 26.2501 30.625C27.1251 30.625 27.7084 30.0417 27.7084 29.1667V5.83333C27.7084 4.95833 27.1251 4.375 26.2501 4.375ZM17.5001 13.125C18.3751 13.125 18.9584 13.7083 18.9584 14.5833V29.1667C18.9584 30.0417 18.3751 30.625 17.5001 30.625C16.6251 30.625 16.0417 30.0417 16.0417 29.1667V14.5833C16.0417 13.7083 16.6251 13.125 17.5001 13.125ZM7.29175 23.3333C7.29175 22.4583 7.87508 21.875 8.75008 21.875C9.62508 21.875 10.2084 22.4583 10.2084 23.3333V29.1667C10.2084 30.0417 9.62508 30.625 8.75008 30.625C7.87508 30.625 7.29175 30.0417 7.29175 29.1667V23.3333Z" fill="white"/>
</mask>
<g mask="url(#mask0_308_5008)">
<rect width="35" height="35" fill="#0088D4"/>
</g>
</svg>
