<svg width="33" height="33" viewBox="0 0 33 33" fill="none" xmlns="http://www.w3.org/2000/svg">
<path d="M20.5 7.33337C20.5 7.06816 20.6054 6.8138 20.7929 6.62627C20.9804 6.43873 21.2348 6.33337 21.5 6.33337C21.7652 6.33337 22.0196 6.43873 22.2071 6.62627C22.3946 6.8138 22.5 7.06816 22.5 7.33337C22.5 7.59859 22.3946 7.85294 22.2071 8.04048C22.0196 8.22802 21.7652 8.33337 21.5 8.33337C21.2348 8.33337 20.9804 8.22802 20.7929 8.04048C20.6054 7.85294 20.5 7.59859 20.5 7.33337ZM21.5 4.33337C20.9221 4.33313 20.3565 4.49979 19.8711 4.81332C19.3856 5.12684 19.0011 5.57389 18.7637 6.10073C18.5262 6.62757 18.446 7.21176 18.5326 7.7831C18.6193 8.35444 18.8691 8.8886 19.252 9.32137L18.006 11.5634C17.2955 11.3393 16.5438 11.2768 15.8061 11.3806C15.0683 11.4844 14.3631 11.7519 13.742 12.1634L12.208 10.6254C12.513 9.98678 12.5825 9.26092 12.4041 8.57607C12.2257 7.89123 11.8109 7.2915 11.2331 6.88289C10.6552 6.47429 9.95158 6.28311 9.24643 6.34315C8.54128 6.4032 7.88006 6.7106 7.37964 7.21102C6.87922 7.71144 6.57182 8.37266 6.51177 9.07781C6.45173 9.78295 6.64291 10.4866 7.05151 11.0645C7.46012 11.6423 8.05985 12.057 8.74469 12.2354C9.42954 12.4139 10.1554 12.3444 10.794 12.0394L12.328 13.5754C11.9154 14.196 11.6474 14.9013 11.5439 15.6393C11.4404 16.3774 11.504 17.1292 11.73 17.8394L9.488 19.0854C8.95757 18.6169 8.27861 18.351 7.57112 18.3347C6.86362 18.3184 6.17314 18.5528 5.62171 18.9963C5.07029 19.4399 4.69342 20.0641 4.55772 20.7587C4.42202 21.4532 4.53622 22.1734 4.88014 22.7919C5.22407 23.4104 5.77556 23.8874 6.43716 24.1386C7.09876 24.3898 7.82787 24.399 8.49561 24.1646C9.16336 23.9303 9.72675 23.4674 10.0862 22.8578C10.4457 22.2482 10.5781 21.5311 10.46 20.8334L12.704 19.5874C13.2391 20.2131 13.9207 20.6967 14.6881 20.9951C15.4555 21.2934 16.2847 21.3973 17.102 21.2974L17.658 22.9654C17.0995 23.4 16.7127 24.0181 16.5658 24.7103C16.419 25.4026 16.5216 26.1245 16.8555 26.7484C17.1894 27.3724 17.7332 27.8582 18.3906 28.12C19.0481 28.3818 19.7769 28.4028 20.4483 28.1792C21.1198 27.9556 21.6905 27.5019 22.0598 26.8982C22.429 26.2945 22.573 25.5797 22.4662 24.8802C22.3594 24.1806 22.0088 23.5413 21.4762 23.0753C20.9437 22.6092 20.2635 22.3465 19.556 22.3334L18.998 20.6654C20.062 20.0514 20.878 19.0574 21.26 17.8674L22.578 18.0154C22.7391 18.7045 23.1386 19.3144 23.7059 19.7375C24.2732 20.1605 24.9719 20.3694 25.6783 20.3271C26.3847 20.2849 27.0534 19.9943 27.5663 19.5067C28.0792 19.0191 28.4032 18.3658 28.481 17.6625C28.5589 16.9591 28.3856 16.2508 27.9917 15.6629C27.5978 15.0749 27.0088 14.6451 26.3287 14.4494C25.6486 14.2538 24.9213 14.3048 24.2752 14.5936C23.6291 14.8823 23.1059 15.3902 22.798 16.0274L21.478 15.8814C21.3616 14.5845 20.743 13.3844 19.754 12.5374L21 10.2914C21.4093 10.3606 21.8285 10.3441 22.2312 10.243C22.6338 10.1418 23.011 9.95822 23.339 9.70377C23.6671 9.44932 23.9387 9.12957 24.1367 8.76473C24.3348 8.3999 24.455 7.99793 24.4897 7.58425C24.5244 7.17058 24.4729 6.7542 24.3384 6.36146C24.2039 5.96872 23.9894 5.60816 23.7084 5.3026C23.4274 4.99704 23.086 4.75313 22.7059 4.5863C22.3257 4.41947 21.9151 4.33334 21.5 4.33337ZM9.5 8.33337C9.76521 8.33337 10.0196 8.43873 10.2071 8.62627C10.3946 8.8138 10.5 9.06816 10.5 9.33337C10.5 9.59859 10.3946 9.85294 10.2071 10.0405C10.0196 10.228 9.76521 10.3334 9.5 10.3334C9.23478 10.3334 8.98043 10.228 8.79289 10.0405C8.60535 9.85294 8.5 9.59859 8.5 9.33337C8.5 9.06816 8.60535 8.8138 8.79289 8.62627C8.98043 8.43873 9.23478 8.33337 9.5 8.33337ZM7.5 20.3334C7.76521 20.3334 8.01957 20.4387 8.2071 20.6263C8.39464 20.8138 8.5 21.0682 8.5 21.3334C8.5 21.5986 8.39464 21.8529 8.2071 22.0405C8.01957 22.228 7.76521 22.3334 7.5 22.3334C7.23478 22.3334 6.98043 22.228 6.79289 22.0405C6.60535 21.8529 6.5 21.5986 6.5 21.3334C6.5 21.0682 6.60535 20.8138 6.79289 20.6263C6.98043 20.4387 7.23478 20.3334 7.5 20.3334ZM18.5 25.3334C18.5 25.0682 18.6054 24.8138 18.7929 24.6263C18.9804 24.4387 19.2348 24.3334 19.5 24.3334C19.7652 24.3334 20.0196 24.4387 20.2071 24.6263C20.3946 24.8138 20.5 25.0682 20.5 25.3334C20.5 25.5986 20.3946 25.8529 20.2071 26.0405C20.0196 26.228 19.7652 26.3334 19.5 26.3334C19.2348 26.3334 18.9804 26.228 18.7929 26.0405C18.6054 25.8529 18.5 25.5986 18.5 25.3334ZM25.5 16.3334C25.7652 16.3334 26.0196 16.4387 26.2071 16.6263C26.3946 16.8138 26.5 17.0682 26.5 17.3334C26.5 17.5986 26.3946 17.8529 26.2071 18.0405C26.0196 18.228 25.7652 18.3334 25.5 18.3334C25.2348 18.3334 24.9804 18.228 24.7929 18.0405C24.6054 17.8529 24.5 17.5986 24.5 17.3334C24.5 17.0682 24.6054 16.8138 24.7929 16.6263C24.9804 16.4387 25.2348 16.3334 25.5 16.3334ZM16.5 13.3334C17.2956 13.3334 18.0587 13.6494 18.6213 14.2121C19.1839 14.7747 19.5 15.5377 19.5 16.3334C19.5 17.129 19.1839 17.8921 18.6213 18.4547C18.0587 19.0173 17.2956 19.3334 16.5 19.3334C15.7043 19.3334 14.9413 19.0173 14.3787 18.4547C13.8161 17.8921 13.5 17.129 13.5 16.3334C13.5 15.5377 13.8161 14.7747 14.3787 14.2121C14.9413 13.6494 15.7043 13.3334 16.5 13.3334Z" fill="white"/>
</svg>
