<svg width="25" height="26" viewBox="0 0 25 26" fill="none" xmlns="http://www.w3.org/2000/svg">
<path fill-rule="evenodd" clip-rule="evenodd" d="M19.7915 11.9584H22.9165C23.5415 11.9584 23.9582 12.3751 23.9582 13.1042C23.9582 19.4584 18.854 24.5626 12.4998 24.5626C6.14567 24.5626 1.0415 19.4584 1.0415 13.1042C1.0415 12.4792 1.45817 12.0626 2.08317 12.0626H5.20817C5.83317 12.0626 6.24984 12.4792 6.24984 13.1042C6.24984 13.7292 5.83317 14.1459 5.20817 14.1459H3.229C3.64567 18.4167 7.08317 21.8542 11.4582 22.3751V9.77091C9.68734 9.25008 8.33317 7.68758 8.33317 5.70841C8.33317 3.41675 10.2082 1.54175 12.4998 1.54175C14.7915 1.54175 16.6665 3.41675 16.6665 5.70841C16.6665 7.68758 15.3123 9.35425 13.5415 9.77091V22.2709C17.8123 21.8542 21.2498 18.4167 21.7707 14.0417H19.7915C19.1665 14.0417 18.7498 13.6251 18.7498 13.0001C18.7498 12.3751 19.1665 11.9584 19.7915 11.9584ZM12.4998 3.62508C11.354 3.62508 10.4165 4.56258 10.4165 5.70842C10.4165 6.85425 11.354 7.79175 12.4998 7.79175C13.6457 7.79175 14.5832 6.85425 14.5832 5.70842C14.5832 4.56258 13.6457 3.62508 12.4998 3.62508Z" fill="#0088D4"/>
<mask id="mask0_587_11145" style="mask-type:luminance" maskUnits="userSpaceOnUse" x="1" y="1" width="23" height="24">
<path fill-rule="evenodd" clip-rule="evenodd" d="M19.7915 11.9584H22.9165C23.5415 11.9584 23.9582 12.3751 23.9582 13.1042C23.9582 19.4584 18.854 24.5626 12.4998 24.5626C6.14567 24.5626 1.0415 19.4584 1.0415 13.1042C1.0415 12.4792 1.45817 12.0626 2.08317 12.0626H5.20817C5.83317 12.0626 6.24984 12.4792 6.24984 13.1042C6.24984 13.7292 5.83317 14.1459 5.20817 14.1459H3.229C3.64567 18.4167 7.08317 21.8542 11.4582 22.3751V9.77091C9.68734 9.25008 8.33317 7.68758 8.33317 5.70841C8.33317 3.41675 10.2082 1.54175 12.4998 1.54175C14.7915 1.54175 16.6665 3.41675 16.6665 5.70841C16.6665 7.68758 15.3123 9.35425 13.5415 9.77091V22.2709C17.8123 21.8542 21.2498 18.4167 21.7707 14.0417H19.7915C19.1665 14.0417 18.7498 13.6251 18.7498 13.0001C18.7498 12.3751 19.1665 11.9584 19.7915 11.9584ZM12.4998 3.62508C11.354 3.62508 10.4165 4.56258 10.4165 5.70842C10.4165 6.85425 11.354 7.79175 12.4998 7.79175C13.6457 7.79175 14.5832 6.85425 14.5832 5.70842C14.5832 4.56258 13.6457 3.62508 12.4998 3.62508Z" fill="white"/>
</mask>
<g mask="url(#mask0_587_11145)">
<rect y="0.5" width="25" height="25" fill="#0088D4"/>
</g>
</svg>
