<svg width="38" height="38" viewBox="0 0 38 38" fill="none" xmlns="http://www.w3.org/2000/svg">
<path fill-rule="evenodd" clip-rule="evenodd" d="M21.0585 0.950098L33.7252 7.28343C35.4668 8.0751 36.4168 9.65843 36.4168 11.4001V26.4418C36.4168 28.3418 35.3085 29.9251 33.7252 30.7168L21.0585 37.0501C20.4252 37.3668 19.7918 37.5251 19.0002 37.5251C18.3668 37.5251 17.5752 37.3668 16.9418 37.0501L4.27516 30.7168C2.5335 29.9251 1.5835 28.1834 1.5835 26.4418V11.4001C1.5835 9.65843 2.5335 8.0751 4.11683 7.28343L16.7835 0.950098C18.2085 0.316764 19.7918 0.316764 21.0585 0.950098ZM19.0002 3.48343C18.8418 3.48343 18.5252 3.48343 18.3668 3.64176L6.65016 9.5001L19.0002 15.6751L31.3502 9.5001L19.6335 3.64176C19.4752 3.48343 19.3168 3.48343 19.0002 3.48343ZM5.54183 28.0251C5.06683 27.7084 4.75016 27.0751 4.75016 26.6001V12.0334L17.4168 18.3668V33.8834L5.54183 28.0251ZM20.5835 33.8834L32.3002 28.0251C32.9335 27.7084 33.2502 27.2334 33.2502 26.6001V12.0334L20.5835 18.3668V33.8834Z" fill="#333333"/>
<mask id="mask0_587_11198" style="mask-type:luminance" maskUnits="userSpaceOnUse" x="1" y="0" width="36" height="38">
<path fill-rule="evenodd" clip-rule="evenodd" d="M21.0585 0.950098L33.7252 7.28343C35.4668 8.0751 36.4168 9.65843 36.4168 11.4001V26.4418C36.4168 28.3418 35.3085 29.9251 33.7252 30.7168L21.0585 37.0501C20.4252 37.3668 19.7918 37.5251 19.0002 37.5251C18.3668 37.5251 17.5752 37.3668 16.9418 37.0501L4.27516 30.7168C2.5335 29.9251 1.5835 28.1834 1.5835 26.4418V11.4001C1.5835 9.65843 2.5335 8.0751 4.11683 7.28343L16.7835 0.950098C18.2085 0.316764 19.7918 0.316764 21.0585 0.950098ZM19.0002 3.48343C18.8418 3.48343 18.5252 3.48343 18.3668 3.64176L6.65016 9.5001L19.0002 15.6751L31.3502 9.5001L19.6335 3.64176C19.4752 3.48343 19.3168 3.48343 19.0002 3.48343ZM5.54183 28.0251C5.06683 27.7084 4.75016 27.0751 4.75016 26.6001V12.0334L17.4168 18.3668V33.8834L5.54183 28.0251ZM20.5835 33.8834L32.3002 28.0251C32.9335 27.7084 33.2502 27.2334 33.2502 26.6001V12.0334L20.5835 18.3668V33.8834Z" fill="white"/>
</mask>
<g mask="url(#mask0_587_11198)">
<rect width="38" height="38" fill="#333333"/>
</g>
</svg>
