<svg width="26" height="24" viewBox="0 0 26 24" fill="none" xmlns="http://www.w3.org/2000/svg">
<path d="M25.1447 14.7166V23.7867H19.8861V15.3245C19.8861 13.1997 19.1269 11.7487 17.2229 11.7487C15.7699 11.7487 14.9067 12.7256 14.5255 13.6715C14.3871 14.0095 14.3514 14.479 14.3514 14.9531V23.7863H9.0924C9.0924 23.7863 9.16299 9.45407 9.0924 7.97048H14.3518V10.2117C14.3412 10.2294 14.3263 10.2466 14.3169 10.2635H14.3518V10.2117C15.0507 9.13641 16.297 7.5991 19.0912 7.5991C22.5509 7.5991 25.1447 9.85957 25.1447 14.7166ZM3.59103 0.34668C1.79214 0.34668 0.615234 1.52751 0.615234 3.07893C0.615234 4.59742 1.75802 5.81237 3.522 5.81237H3.55612C5.39031 5.81237 6.53074 4.59742 6.53074 3.07893C6.49584 1.52751 5.39031 0.34668 3.59103 0.34668ZM0.927794 23.7867H6.18484V7.97048H0.927794V23.7867Z" fill="white"/>
</svg>
