<svg width="30" height="30" viewBox="0 0 30 30" fill="none" xmlns="http://www.w3.org/2000/svg">
<path fill-rule="evenodd" clip-rule="evenodd" d="M5 1.25H25C27.125 1.25 28.75 2.875 28.75 5V10C28.75 12.125 27.125 13.75 25 13.75H5C2.875 13.75 1.25 12.125 1.25 10V5C1.25 2.875 2.875 1.25 5 1.25ZM25 11.25C25.75 11.25 26.25 10.75 26.25 10V5C26.25 4.25 25.75 3.75 25 3.75H5C4.25 3.75 3.75 4.25 3.75 5V10C3.75 10.75 4.25 11.25 5 11.25H25ZM25 16.25H5C2.875 16.25 1.25 17.875 1.25 20V25C1.25 27.125 2.875 28.75 5 28.75H25C27.125 28.75 28.75 27.125 28.75 25V20C28.75 17.875 27.125 16.25 25 16.25ZM25 26.25C25.75 26.25 26.25 25.75 26.25 25V20C26.25 19.25 25.75 18.75 25 18.75H5C4.25 18.75 3.75 19.25 3.75 20V25C3.75 25.75 4.25 26.25 5 26.25H25ZM8.375 6.625C8.625 6.875 8.75 7.125 8.75 7.5C8.75 7.875 8.625 8.125 8.375 8.375C8.125 8.625 7.875 8.75 7.5 8.75C7.125 8.75 6.875 8.625 6.625 8.375C6.5 8.25 6.375 8.125 6.375 8C6.25 7.875 6.25 7.625 6.25 7.5C6.25 7.375 6.25 7.125 6.375 7C6.4375 6.9375 6.46875 6.875 6.5 6.8125C6.53125 6.75 6.5625 6.6875 6.625 6.625C6.75 6.5 6.875 6.375 7 6.375C7.375 6.25 7.625 6.25 8 6.375C8.125 6.375 8.25 6.5 8.375 6.625ZM8.75 22.5C8.75 22.125 8.625 21.875 8.375 21.625C7.875 21.125 7.125 21.125 6.625 21.625C6.5625 21.6875 6.53125 21.75 6.5 21.8125C6.46875 21.875 6.4375 21.9375 6.375 22C6.25 22.125 6.25 22.375 6.25 22.5C6.25 22.875 6.375 23.125 6.625 23.375C6.875 23.625 7.125 23.75 7.5 23.75C7.875 23.75 8.125 23.625 8.375 23.375C8.625 23.125 8.75 22.875 8.75 22.5Z" fill="#333333"/>
<mask id="mask0_847_553" style="mask-type:luminance" maskUnits="userSpaceOnUse" x="1" y="1" width="28" height="28">
<path fill-rule="evenodd" clip-rule="evenodd" d="M5 1.25H25C27.125 1.25 28.75 2.875 28.75 5V10C28.75 12.125 27.125 13.75 25 13.75H5C2.875 13.75 1.25 12.125 1.25 10V5C1.25 2.875 2.875 1.25 5 1.25ZM25 11.25C25.75 11.25 26.25 10.75 26.25 10V5C26.25 4.25 25.75 3.75 25 3.75H5C4.25 3.75 3.75 4.25 3.75 5V10C3.75 10.75 4.25 11.25 5 11.25H25ZM25 16.25H5C2.875 16.25 1.25 17.875 1.25 20V25C1.25 27.125 2.875 28.75 5 28.75H25C27.125 28.75 28.75 27.125 28.75 25V20C28.75 17.875 27.125 16.25 25 16.25ZM25 26.25C25.75 26.25 26.25 25.75 26.25 25V20C26.25 19.25 25.75 18.75 25 18.75H5C4.25 18.75 3.75 19.25 3.75 20V25C3.75 25.75 4.25 26.25 5 26.25H25ZM8.375 6.625C8.625 6.875 8.75 7.125 8.75 7.5C8.75 7.875 8.625 8.125 8.375 8.375C8.125 8.625 7.875 8.75 7.5 8.75C7.125 8.75 6.875 8.625 6.625 8.375C6.5 8.25 6.375 8.125 6.375 8C6.25 7.875 6.25 7.625 6.25 7.5C6.25 7.375 6.25 7.125 6.375 7C6.4375 6.9375 6.46875 6.875 6.5 6.8125C6.53125 6.75 6.5625 6.6875 6.625 6.625C6.75 6.5 6.875 6.375 7 6.375C7.375 6.25 7.625 6.25 8 6.375C8.125 6.375 8.25 6.5 8.375 6.625ZM8.75 22.5C8.75 22.125 8.625 21.875 8.375 21.625C7.875 21.125 7.125 21.125 6.625 21.625C6.5625 21.6875 6.53125 21.75 6.5 21.8125C6.46875 21.875 6.4375 21.9375 6.375 22C6.25 22.125 6.25 22.375 6.25 22.5C6.25 22.875 6.375 23.125 6.625 23.375C6.875 23.625 7.125 23.75 7.5 23.75C7.875 23.75 8.125 23.625 8.375 23.375C8.625 23.125 8.75 22.875 8.75 22.5Z" fill="white"/>
</mask>
<g mask="url(#mask0_847_553)">
<rect width="30" height="30" fill="white"/>
</g>
</svg>
