<svg width="33" height="32" viewBox="0 0 33 32" fill="none" xmlns="http://www.w3.org/2000/svg">
<path fill-rule="evenodd" clip-rule="evenodd" d="M10.5 3H22.5C22.7652 3 23.0196 3.10536 23.2071 3.29289C23.3946 3.48043 23.5 3.73478 23.5 4V28C23.5 28.2652 23.3946 28.5196 23.2071 28.7071C23.0196 28.8946 22.7652 29 22.5 29H10.5C10.2348 29 9.98043 28.8946 9.79289 28.7071C9.60536 28.5196 9.5 28.2652 9.5 28V4C9.5 3.73478 9.60536 3.48043 9.79289 3.29289C9.98043 3.10536 10.2348 3 10.5 3ZM6.5 4C6.5 2.93913 6.92143 1.92172 7.67157 1.17157C8.42172 0.421427 9.43913 0 10.5 0L22.5 0C23.5609 0 24.5783 0.421427 25.3284 1.17157C26.0786 1.92172 26.5 2.93913 26.5 4V28C26.5 29.0609 26.0786 30.0783 25.3284 30.8284C24.5783 31.5786 23.5609 32 22.5 32H10.5C9.43913 32 8.42172 31.5786 7.67157 30.8284C6.92143 30.0783 6.5 29.0609 6.5 28V4ZM16.5 26C17.0304 26 17.5391 25.7893 17.9142 25.4142C18.2893 25.0391 18.5 24.5304 18.5 24C18.5 23.4696 18.2893 22.9609 17.9142 22.5858C17.5391 22.2107 17.0304 22 16.5 22C15.9696 22 15.4609 22.2107 15.0858 22.5858C14.7107 22.9609 14.5 23.4696 14.5 24C14.5 24.5304 14.7107 25.0391 15.0858 25.4142C15.4609 25.7893 15.9696 26 16.5 26Z" fill="white"/>
</svg>
