<svg width="51" height="83" viewBox="0 0 51 83" fill="none" xmlns="http://www.w3.org/2000/svg">
<path fill-rule="evenodd" clip-rule="evenodd" d="M25.5 47.5C24.8787 47.5 24.375 48.0037 24.375 48.625V61.659L18.4205 55.7045C17.9812 55.2652 17.2688 55.2652 16.8295 55.7045C16.3902 56.1438 16.3902 56.8562 16.8295 57.2955L24.7034 65.1694C24.7062 65.1722 24.7091 65.175 24.7119 65.1778C24.818 65.282 24.9397 65.361 25.0694 65.4146C25.202 65.4696 25.3475 65.5 25.5 65.5C25.8069 65.5 26.0851 65.3771 26.2881 65.1778C26.2909 65.175 26.2938 65.1722 26.2966 65.1694L34.1705 57.2955C34.6098 56.8562 34.6098 56.1438 34.1705 55.7045C33.7312 55.2652 33.0188 55.2652 32.5795 55.7045L26.625 61.659V48.625C26.625 48.0037 26.1213 47.5 25.5 47.5Z" fill="white"/>
<mask id="mask0_484_14809" style="mask-type:luminance" maskUnits="userSpaceOnUse" x="16" y="47" width="19" height="19">
<path fill-rule="evenodd" clip-rule="evenodd" d="M25.5 47.5C24.8787 47.5 24.375 48.0037 24.375 48.625V61.659L18.4205 55.7045C17.9812 55.2652 17.2688 55.2652 16.8295 55.7045C16.3902 56.1438 16.3902 56.8562 16.8295 57.2955L24.7034 65.1694C24.7062 65.1722 24.7091 65.175 24.7119 65.1778C24.818 65.282 24.9397 65.361 25.0694 65.4146C25.202 65.4696 25.3475 65.5 25.5 65.5C25.8069 65.5 26.0851 65.3771 26.2881 65.1778C26.2909 65.175 26.2938 65.1722 26.2966 65.1694L34.1705 57.2955C34.6098 56.8562 34.6098 56.1438 34.1705 55.7045C33.7312 55.2652 33.0188 55.2652 32.5795 55.7045L26.625 61.659V48.625C26.625 48.0037 26.1213 47.5 25.5 47.5Z" fill="white"/>
</mask>
<g mask="url(#mask0_484_14809)">
<rect x="12" y="43" width="27" height="27" fill="white"/>
</g>
<path d="M37.5 30C37.5 33.1826 36.2357 36.2348 33.9853 38.4853C31.7348 40.7357 28.6826 42 25.5 42C22.3174 42 19.2652 40.7357 17.0147 38.4853C14.7643 36.2348 13.5 33.1826 13.5 30L13.5 18C13.5 14.8174 14.7643 11.7652 17.0147 9.51472C19.2652 7.26428 22.3174 6 25.5 6C28.6826 6 31.7348 7.26428 33.9853 9.51472C36.2357 11.7652 37.5 14.8174 37.5 18V30Z" stroke="white" stroke-width="2" stroke-linejoin="round"/>
<path d="M25.5 34V26" stroke="white" stroke-width="2" stroke-linecap="round" stroke-linejoin="round"/>
</svg>
