<svg width="46" height="47" viewBox="0 0 46 47" fill="none" xmlns="http://www.w3.org/2000/svg">
<path fill-rule="evenodd" clip-rule="evenodd" d="M9.93929 8.87995L22.2607 21.6577C23.2464 22.6799 23.2464 24.2133 22.2607 25.2355L9.93929 38.0133C9.44643 38.5244 8.95357 38.7799 8.21429 38.7799C7.475 38.7799 6.98214 38.5244 6.48929 38.0133C5.50357 36.9911 5.50357 35.4577 6.48929 34.4355L17.0857 23.4466L6.48929 12.4577C5.50357 11.4355 5.50357 9.90217 6.48929 8.87995C7.475 7.85773 8.95357 7.85773 9.93929 8.87995ZM27.1893 38.0133L39.5107 25.2355C40.4964 24.2133 40.4964 22.6799 39.5107 21.6577L27.1893 8.87995C26.2036 7.85773 24.725 7.85773 23.7393 8.87995C22.7536 9.90217 22.7536 11.4355 23.7393 12.4577L34.3357 23.4466L23.7393 34.4355C22.7536 35.4577 22.7536 36.9911 23.7393 38.0133C24.2321 38.5244 24.725 38.7799 25.4643 38.7799C26.2036 38.7799 26.6964 38.5244 27.1893 38.0133Z" fill="#333333"/>
<mask id="mask0_423_6417" style="mask-type:luminance" maskUnits="userSpaceOnUse" x="5" y="8" width="36" height="31">
<path fill-rule="evenodd" clip-rule="evenodd" d="M9.93929 8.87995L22.2607 21.6577C23.2464 22.6799 23.2464 24.2133 22.2607 25.2355L9.93929 38.0133C9.44643 38.5244 8.95357 38.7799 8.21429 38.7799C7.475 38.7799 6.98214 38.5244 6.48929 38.0133C5.50357 36.9911 5.50357 35.4577 6.48929 34.4355L17.0857 23.4466L6.48929 12.4577C5.50357 11.4355 5.50357 9.90217 6.48929 8.87995C7.475 7.85773 8.95357 7.85773 9.93929 8.87995ZM27.1893 38.0133L39.5107 25.2355C40.4964 24.2133 40.4964 22.6799 39.5107 21.6577L27.1893 8.87995C26.2036 7.85773 24.725 7.85773 23.7393 8.87995C22.7536 9.90217 22.7536 11.4355 23.7393 12.4577L34.3357 23.4466L23.7393 34.4355C22.7536 35.4577 22.7536 36.9911 23.7393 38.0133C24.2321 38.5244 24.725 38.7799 25.4643 38.7799C26.2036 38.7799 26.6964 38.5244 27.1893 38.0133Z" fill="white"/>
</mask>
<g mask="url(#mask0_423_6417)">
<rect y="0.446289" width="46" height="46" fill="#687276"/>
</g>
</svg>
