<svg width="38" height="38" viewBox="0 0 38 38" fill="none" xmlns="http://www.w3.org/2000/svg">
<path fill-rule="evenodd" clip-rule="evenodd" d="M16.3085 6.66401C16.7835 6.34752 17.5752 6.18928 18.0502 6.50576C18.6835 6.82225 19.0002 7.29699 19.0002 7.92996V19.0071V30.0841C19.0002 30.7171 18.5252 31.1919 18.0502 31.5083C17.8918 31.6666 17.5752 31.6666 17.4168 31.6666C17.1002 31.6666 16.7835 31.5083 16.4668 31.3501L2.21683 20.273C1.74183 19.9565 1.5835 19.4818 1.5835 19.0071C1.5835 18.5323 1.74183 18.0576 2.0585 17.7411L16.3085 6.66401ZM19.0002 19.0071C19.0002 18.5323 19.1585 18.0576 19.4752 17.7411L33.7252 6.66401C34.2002 6.34752 34.9918 6.18928 35.4668 6.50576C36.1002 6.82225 36.4168 7.29699 36.4168 7.92996V30.0841C36.4168 30.7171 35.9418 31.1919 35.4668 31.5083C35.3085 31.6666 34.9918 31.6666 34.8335 31.6666C34.5168 31.6666 34.2002 31.5083 33.8835 31.3501L19.6335 20.273C19.1585 19.9565 19.0002 19.4818 19.0002 19.0071ZM5.70016 19.0071L15.8335 26.9193V11.0948L5.70016 19.0071ZM23.1168 19.0071L33.2502 26.9193V11.0948L23.1168 19.0071Z" fill="#333333"/>
<mask id="mask0_587_11238" style="mask-type:luminance" maskUnits="userSpaceOnUse" x="1" y="6" width="36" height="26">
<path fill-rule="evenodd" clip-rule="evenodd" d="M16.3085 6.66401C16.7835 6.34752 17.5752 6.18928 18.0502 6.50576C18.6835 6.82225 19.0002 7.29699 19.0002 7.92996V19.0071V30.0841C19.0002 30.7171 18.5252 31.1919 18.0502 31.5083C17.8918 31.6666 17.5752 31.6666 17.4168 31.6666C17.1002 31.6666 16.7835 31.5083 16.4668 31.3501L2.21683 20.273C1.74183 19.9565 1.5835 19.4818 1.5835 19.0071C1.5835 18.5323 1.74183 18.0576 2.0585 17.7411L16.3085 6.66401ZM19.0002 19.0071C19.0002 18.5323 19.1585 18.0576 19.4752 17.7411L33.7252 6.66401C34.2002 6.34752 34.9918 6.18928 35.4668 6.50576C36.1002 6.82225 36.4168 7.29699 36.4168 7.92996V30.0841C36.4168 30.7171 35.9418 31.1919 35.4668 31.5083C35.3085 31.6666 34.9918 31.6666 34.8335 31.6666C34.5168 31.6666 34.2002 31.5083 33.8835 31.3501L19.6335 20.273C19.1585 19.9565 19.0002 19.4818 19.0002 19.0071ZM5.70016 19.0071L15.8335 26.9193V11.0948L5.70016 19.0071ZM23.1168 19.0071L33.2502 26.9193V11.0948L23.1168 19.0071Z" fill="white"/>
</mask>
<g mask="url(#mask0_587_11238)">
<rect width="38" height="38" fill="#333333"/>
</g>
</svg>
