<svg width="38" height="38" viewBox="0 0 38 38" fill="none" xmlns="http://www.w3.org/2000/svg">
<path fill-rule="evenodd" clip-rule="evenodd" d="M11.0833 11.0834C11.0833 6.65008 14.5667 3.16675 19 3.16675C23.4333 3.16675 26.9167 6.65008 26.9167 11.0834C26.9167 15.5167 23.4333 19.0001 19 19.0001C14.5667 19.0001 11.0833 15.5167 11.0833 11.0834ZM33.25 30.0834V33.2501C33.25 34.2001 32.6167 34.8334 31.6667 34.8334C30.7167 34.8334 30.0833 34.2001 30.0833 33.2501V30.0834C30.0833 27.3917 28.025 25.3334 25.3333 25.3334H12.6667C9.975 25.3334 7.91667 27.3917 7.91667 30.0834V33.2501C7.91667 34.2001 7.28333 34.8334 6.33333 34.8334C5.38333 34.8334 4.75 34.2001 4.75 33.2501V30.0834C4.75 25.6501 8.23333 22.1667 12.6667 22.1667H25.3333C29.7667 22.1667 33.25 25.6501 33.25 30.0834ZM19 15.8334C16.3083 15.8334 14.25 13.7751 14.25 11.0834C14.25 8.39175 16.3083 6.33341 19 6.33341C21.6917 6.33341 23.75 8.39175 23.75 11.0834C23.75 13.7751 21.6917 15.8334 19 15.8334Z" fill="#333333"/>
<mask id="mask0_587_11170" style="mask-type:luminance" maskUnits="userSpaceOnUse" x="4" y="3" width="30" height="32">
<path fill-rule="evenodd" clip-rule="evenodd" d="M11.0833 11.0834C11.0833 6.65008 14.5667 3.16675 19 3.16675C23.4333 3.16675 26.9167 6.65008 26.9167 11.0834C26.9167 15.5167 23.4333 19.0001 19 19.0001C14.5667 19.0001 11.0833 15.5167 11.0833 11.0834ZM33.25 30.0834V33.2501C33.25 34.2001 32.6167 34.8334 31.6667 34.8334C30.7167 34.8334 30.0833 34.2001 30.0833 33.2501V30.0834C30.0833 27.3917 28.025 25.3334 25.3333 25.3334H12.6667C9.975 25.3334 7.91667 27.3917 7.91667 30.0834V33.2501C7.91667 34.2001 7.28333 34.8334 6.33333 34.8334C5.38333 34.8334 4.75 34.2001 4.75 33.2501V30.0834C4.75 25.6501 8.23333 22.1667 12.6667 22.1667H25.3333C29.7667 22.1667 33.25 25.6501 33.25 30.0834ZM19 15.8334C16.3083 15.8334 14.25 13.7751 14.25 11.0834C14.25 8.39175 16.3083 6.33341 19 6.33341C21.6917 6.33341 23.75 8.39175 23.75 11.0834C23.75 13.7751 21.6917 15.8334 19 15.8334Z" fill="white"/>
</mask>
<g mask="url(#mask0_587_11170)">
<rect width="38" height="38" fill="#333333"/>
</g>
</svg>
