<svg width="40" height="40" viewBox="0 0 40 40" fill="none" xmlns="http://www.w3.org/2000/svg">
<path d="M29.522 19.042C35.3089 19.042 40 23.7331 40 29.5199C40 35.3068 35.3089 39.9979 29.522 39.9979C23.7352 39.9979 19.0441 35.3068 19.0441 29.5199C19.0441 23.7331 23.7352 19.042 29.522 19.042ZM19.0866 22.8508C18.5213 23.7334 18.0649 24.6925 17.7364 25.709L4.2843 25.7096C3.49636 25.7096 2.85762 26.3484 2.85762 27.1363V28.2369C2.85762 29.2574 3.2217 30.2443 3.88441 31.0204C6.27207 33.8165 10.0172 35.2373 15.2339 35.2373C16.3701 35.2373 17.4368 35.1698 18.4348 35.0355C18.902 35.9784 19.488 36.8518 20.1713 37.6385C18.6558 37.9436 17.0083 38.0949 15.2339 38.0949C9.2408 38.0949 4.69523 36.3704 1.7113 32.8761C0.606807 31.5828 0 29.9377 0 28.2369V27.1363C0 24.7702 1.91815 22.852 4.2843 22.852L19.0866 22.8508ZM29.522 22.8522L29.3508 22.8676C28.9619 22.9381 28.6554 23.2446 28.5849 23.6334L28.5695 23.8047L28.5676 28.5674H23.8142L23.643 28.5828C23.2541 28.6533 22.9476 28.9599 22.8771 29.3487L22.8617 29.5199L22.8771 29.6912C22.9476 30.08 23.2541 30.3866 23.643 30.4572L23.8142 30.4725H28.5676L28.5695 35.2352L28.5849 35.4065C28.6554 35.7953 28.9619 36.1018 29.3508 36.1723L29.522 36.1877L29.6933 36.1723C30.0821 36.1018 30.3887 35.7953 30.4592 35.4065L30.4746 35.2352L30.4727 30.4725H35.2447L35.416 30.4572C35.8048 30.3866 36.1113 30.08 36.1818 29.6912L36.1973 29.5199L36.1818 29.3487C36.1113 28.9599 35.8048 28.6533 35.416 28.5828L35.2447 28.5674H30.4727L30.4746 23.8047L30.4592 23.6334C30.3887 23.2446 30.0821 22.9381 29.6933 22.8676L29.522 22.8522ZM15.2339 0C20.4946 0 24.7593 4.26466 24.7593 9.52541C24.7593 14.7861 20.4946 19.0508 15.2339 19.0508C9.97317 19.0508 5.7085 14.7861 5.7085 9.52541C5.7085 4.26466 9.97317 0 15.2339 0ZM15.2339 2.85762C11.5514 2.85762 8.56613 5.84289 8.56613 9.52541C8.56613 13.2079 11.5514 16.1931 15.2339 16.1931C18.9164 16.1931 21.9017 13.2079 21.9017 9.52541C21.9017 5.84289 18.9164 2.85762 15.2339 2.85762Z" fill="#687276"/>
<ellipse cx="29.1667" cy="30.0001" rx="9.16667" ry="8.33333" fill="#687276"/>
<path fill-rule="evenodd" clip-rule="evenodd" d="M36.542 29.6667V29.1042C36.542 28.7292 36.292 28.4792 35.917 28.4792C35.542 28.4792 35.292 28.7292 35.292 29.1042V29.6667C35.292 32.7917 32.792 35.2917 29.667 35.2917C26.542 35.2917 24.042 32.7917 24.042 29.6667C24.042 26.5417 26.542 24.0417 29.667 24.0417C30.4795 24.0417 31.2295 24.2292 31.9795 24.5417C32.292 24.6667 32.667 24.5417 32.792 24.2292C32.917 23.9167 32.792 23.5417 32.4795 23.4167C31.6045 22.9792 30.6045 22.7917 29.667 22.7917C25.8545 22.7917 22.792 25.8542 22.792 29.6667C22.792 33.4792 25.8545 36.5417 29.667 36.5417C33.4795 36.5417 36.542 33.4792 36.542 29.6667ZM36.1045 23.6042C36.3545 23.3542 36.7295 23.3542 36.9795 23.6042C37.2295 23.8542 37.2295 24.2292 36.9795 24.4792L30.1045 31.3542C29.9795 31.4792 29.792 31.5417 29.667 31.5417C29.542 31.5417 29.3545 31.4792 29.2295 31.3542L27.3545 29.4792C27.1045 29.2292 27.1045 28.8542 27.3545 28.6042C27.6045 28.3542 27.9795 28.3542 28.2295 28.6042L29.667 30.0417L36.1045 23.6042Z" fill="#333333"/>
<mask id="mask0_587_11194" style="mask-type:luminance" maskUnits="userSpaceOnUse" x="22" y="22" width="16" height="15">
<path fill-rule="evenodd" clip-rule="evenodd" d="M36.542 29.6667V29.1042C36.542 28.7292 36.292 28.4792 35.917 28.4792C35.542 28.4792 35.292 28.7292 35.292 29.1042V29.6667C35.292 32.7917 32.792 35.2917 29.667 35.2917C26.542 35.2917 24.042 32.7917 24.042 29.6667C24.042 26.5417 26.542 24.0417 29.667 24.0417C30.4795 24.0417 31.2295 24.2292 31.9795 24.5417C32.292 24.6667 32.667 24.5417 32.792 24.2292C32.917 23.9167 32.792 23.5417 32.4795 23.4167C31.6045 22.9792 30.6045 22.7917 29.667 22.7917C25.8545 22.7917 22.792 25.8542 22.792 29.6667C22.792 33.4792 25.8545 36.5417 29.667 36.5417C33.4795 36.5417 36.542 33.4792 36.542 29.6667ZM36.1045 23.6042C36.3545 23.3542 36.7295 23.3542 36.9795 23.6042C37.2295 23.8542 37.2295 24.2292 36.9795 24.4792L30.1045 31.3542C29.9795 31.4792 29.792 31.5417 29.667 31.5417C29.542 31.5417 29.3545 31.4792 29.2295 31.3542L27.3545 29.4792C27.1045 29.2292 27.1045 28.8542 27.3545 28.6042C27.6045 28.3542 27.9795 28.3542 28.2295 28.6042L29.667 30.0417L36.1045 23.6042Z" fill="white"/>
</mask>
<g mask="url(#mask0_587_11194)">
<rect x="22.167" y="22.1667" width="15" height="15" fill="white"/>
</g>
</svg>
