<svg width="36" height="35" viewBox="0 0 36 35" fill="none" xmlns="http://www.w3.org/2000/svg">
<path fill-rule="evenodd" clip-rule="evenodd" d="M25.1249 7.29175H4.70825C2.22909 7.29175 0.333252 9.18758 0.333252 11.6667V23.3334C0.333252 25.8126 2.22909 27.7084 4.70825 27.7084H25.1249C27.6041 27.7084 29.4999 25.8126 29.4999 23.3334V11.6667C29.4999 9.18758 27.6041 7.29175 25.1249 7.29175ZM26.5833 23.3334C26.5833 24.2084 25.9999 24.7917 25.1249 24.7917H4.70825C3.83325 24.7917 3.24992 24.2084 3.24992 23.3334V11.6667C3.24992 10.7917 3.83325 10.2084 4.70825 10.2084H25.1249C25.9999 10.2084 26.5833 10.7917 26.5833 11.6667V23.3334ZM35.3333 18.9584V16.0417C35.3333 15.1667 34.7499 14.5834 33.8749 14.5834C32.9999 14.5834 32.4166 15.1667 32.4166 16.0417V18.9584C32.4166 19.8334 32.9999 20.4167 33.8749 20.4167C34.7499 20.4167 35.3333 19.8334 35.3333 18.9584Z" fill="#0088D4"/>
<mask id="mask0_308_4993" style="mask-type:luminance" maskUnits="userSpaceOnUse" x="0" y="7" width="36" height="21">
<path fill-rule="evenodd" clip-rule="evenodd" d="M25.1249 7.29175H4.70825C2.22909 7.29175 0.333252 9.18758 0.333252 11.6667V23.3334C0.333252 25.8126 2.22909 27.7084 4.70825 27.7084H25.1249C27.6041 27.7084 29.4999 25.8126 29.4999 23.3334V11.6667C29.4999 9.18758 27.6041 7.29175 25.1249 7.29175ZM26.5833 23.3334C26.5833 24.2084 25.9999 24.7917 25.1249 24.7917H4.70825C3.83325 24.7917 3.24992 24.2084 3.24992 23.3334V11.6667C3.24992 10.7917 3.83325 10.2084 4.70825 10.2084H25.1249C25.9999 10.2084 26.5833 10.7917 26.5833 11.6667V23.3334ZM35.3333 18.9584V16.0417C35.3333 15.1667 34.7499 14.5834 33.8749 14.5834C32.9999 14.5834 32.4166 15.1667 32.4166 16.0417V18.9584C32.4166 19.8334 32.9999 20.4167 33.8749 20.4167C34.7499 20.4167 35.3333 19.8334 35.3333 18.9584Z" fill="white"/>
</mask>
<g mask="url(#mask0_308_4993)">
<rect x="0.333252" width="35" height="35" fill="#0088D4"/>
</g>
</svg>
