<svg width="36" height="35" viewBox="0 0 36 35" fill="none" xmlns="http://www.w3.org/2000/svg">
<path fill-rule="evenodd" clip-rule="evenodd" d="M29.8333 11.6424C29.8333 5.23909 24.5833 0 18.1667 0C11.75 0 6.5 5.23909 6.5 11.6424C6.5 15.4262 8.25 18.7734 11.0208 20.8108L9.41667 33.3264C9.27083 33.9085 9.5625 34.4906 10 34.7817C10.4375 35.0728 11.0208 35.0728 11.6042 34.7817L18.1667 30.8524L24.7292 34.7817C24.875 34.9272 25.1667 34.9272 25.4583 34.9272C25.75 34.9272 26.0417 34.7817 26.1875 34.6362C26.625 34.3451 26.9167 33.763 26.7708 33.1809L25.1667 20.8108C28.0833 18.7734 29.8333 15.4262 29.8333 11.6424ZM9.41667 11.6424C9.41667 6.83992 13.3542 2.9106 18.1667 2.9106C22.9792 2.9106 26.9167 6.83992 26.9167 11.6424C26.9167 16.4449 22.9792 20.3742 18.1667 20.3742C13.3542 20.3742 9.41667 16.4449 9.41667 11.6424ZM18.8958 27.9418L23.5625 30.7069L22.5417 22.4116C21.2292 22.9938 19.7708 23.2848 18.1667 23.2848C16.5625 23.2848 15.1042 22.9938 13.7917 22.4116L12.7708 30.7069L17.4375 27.9418C17.875 27.6507 18.4583 27.6507 18.8958 27.9418Z" fill="#0088D4"/>
<mask id="mask0_308_4978" style="mask-type:luminance" maskUnits="userSpaceOnUse" x="6" y="0" width="24" height="35">
<path fill-rule="evenodd" clip-rule="evenodd" d="M29.8333 11.6424C29.8333 5.23909 24.5833 0 18.1667 0C11.75 0 6.5 5.23909 6.5 11.6424C6.5 15.4262 8.25 18.7734 11.0208 20.8108L9.41667 33.3264C9.27083 33.9085 9.5625 34.4906 10 34.7817C10.4375 35.0728 11.0208 35.0728 11.6042 34.7817L18.1667 30.8524L24.7292 34.7817C24.875 34.9272 25.1667 34.9272 25.4583 34.9272C25.75 34.9272 26.0417 34.7817 26.1875 34.6362C26.625 34.3451 26.9167 33.763 26.7708 33.1809L25.1667 20.8108C28.0833 18.7734 29.8333 15.4262 29.8333 11.6424ZM9.41667 11.6424C9.41667 6.83992 13.3542 2.9106 18.1667 2.9106C22.9792 2.9106 26.9167 6.83992 26.9167 11.6424C26.9167 16.4449 22.9792 20.3742 18.1667 20.3742C13.3542 20.3742 9.41667 16.4449 9.41667 11.6424ZM18.8958 27.9418L23.5625 30.7069L22.5417 22.4116C21.2292 22.9938 19.7708 23.2848 18.1667 23.2848C16.5625 23.2848 15.1042 22.9938 13.7917 22.4116L12.7708 30.7069L17.4375 27.9418C17.875 27.6507 18.4583 27.6507 18.8958 27.9418Z" fill="white"/>
</mask>
<g mask="url(#mask0_308_4978)">
<rect x="0.666748" width="35" height="35" fill="#0088D4"/>
</g>
</svg>
