<svg width="46" height="47" viewBox="0 0 46 47" fill="none" xmlns="http://www.w3.org/2000/svg">
<path fill-rule="evenodd" clip-rule="evenodd" d="M44.0833 25.363H40.25V19.613H44.0833C45.2333 19.613 46 18.8463 46 17.6963C46 16.5463 45.2333 15.7796 44.0833 15.7796H40.25V11.9463C40.25 8.68796 37.7583 6.19629 34.5 6.19629H30.6667V2.36296C30.6667 1.21296 29.9 0.446289 28.75 0.446289C27.6 0.446289 26.8333 1.21296 26.8333 2.36296V6.19629H19.1667V2.36296C19.1667 1.21296 18.4 0.446289 17.25 0.446289C16.1 0.446289 15.3333 1.21296 15.3333 2.36296V6.19629H11.5C8.24167 6.19629 5.75 8.68796 5.75 11.9463V15.7796H1.91667C0.766667 15.7796 0 16.5463 0 17.6963C0 18.8463 0.766667 19.613 1.91667 19.613H5.75V25.363H1.91667C0.766667 25.363 0 26.1296 0 27.2796C0 28.4296 0.766667 29.1963 1.91667 29.1963H5.75V34.9463C5.75 38.2046 8.24167 40.6963 11.5 40.6963H15.3333V44.5296C15.3333 45.6796 16.1 46.4463 17.25 46.4463C18.4 46.4463 19.1667 45.6796 19.1667 44.5296V40.6963H26.8333V44.5296C26.8333 45.6796 27.6 46.4463 28.75 46.4463C29.9 46.4463 30.6667 45.6796 30.6667 44.5296V40.6963H34.5C37.7583 40.6963 40.25 38.2046 40.25 34.9463V29.1963H44.0833C45.2333 29.1963 46 28.4296 46 27.2796C46 26.1296 45.2333 25.363 44.0833 25.363ZM17.25 15.7796H28.75C29.9 15.7796 30.6667 16.5463 30.6667 17.6963V29.1963C30.6667 30.3463 29.9 31.113 28.75 31.113H17.25C16.1 31.113 15.3333 30.3463 15.3333 29.1963V17.6963C15.3333 16.5463 16.1 15.7796 17.25 15.7796ZM19.1667 27.2796H26.8333V19.613H19.1667V27.2796ZM34.5 36.863C35.65 36.863 36.4167 36.0963 36.4167 34.9463V11.9463C36.4167 10.7963 35.65 10.0296 34.5 10.0296H11.5C10.35 10.0296 9.58333 10.7963 9.58333 11.9463V34.9463C9.58333 36.0963 10.35 36.863 11.5 36.863H34.5Z" fill="#687276"/>
<mask id="mask0_423_6430" style="mask-type:luminance" maskUnits="userSpaceOnUse" x="0" y="0" width="46" height="47">
<path fill-rule="evenodd" clip-rule="evenodd" d="M44.0833 25.363H40.25V19.613H44.0833C45.2333 19.613 46 18.8463 46 17.6963C46 16.5463 45.2333 15.7796 44.0833 15.7796H40.25V11.9463C40.25 8.68796 37.7583 6.19629 34.5 6.19629H30.6667V2.36296C30.6667 1.21296 29.9 0.446289 28.75 0.446289C27.6 0.446289 26.8333 1.21296 26.8333 2.36296V6.19629H19.1667V2.36296C19.1667 1.21296 18.4 0.446289 17.25 0.446289C16.1 0.446289 15.3333 1.21296 15.3333 2.36296V6.19629H11.5C8.24167 6.19629 5.75 8.68796 5.75 11.9463V15.7796H1.91667C0.766667 15.7796 0 16.5463 0 17.6963C0 18.8463 0.766667 19.613 1.91667 19.613H5.75V25.363H1.91667C0.766667 25.363 0 26.1296 0 27.2796C0 28.4296 0.766667 29.1963 1.91667 29.1963H5.75V34.9463C5.75 38.2046 8.24167 40.6963 11.5 40.6963H15.3333V44.5296C15.3333 45.6796 16.1 46.4463 17.25 46.4463C18.4 46.4463 19.1667 45.6796 19.1667 44.5296V40.6963H26.8333V44.5296C26.8333 45.6796 27.6 46.4463 28.75 46.4463C29.9 46.4463 30.6667 45.6796 30.6667 44.5296V40.6963H34.5C37.7583 40.6963 40.25 38.2046 40.25 34.9463V29.1963H44.0833C45.2333 29.1963 46 28.4296 46 27.2796C46 26.1296 45.2333 25.363 44.0833 25.363ZM17.25 15.7796H28.75C29.9 15.7796 30.6667 16.5463 30.6667 17.6963V29.1963C30.6667 30.3463 29.9 31.113 28.75 31.113H17.25C16.1 31.113 15.3333 30.3463 15.3333 29.1963V17.6963C15.3333 16.5463 16.1 15.7796 17.25 15.7796ZM19.1667 27.2796H26.8333V19.613H19.1667V27.2796ZM34.5 36.863C35.65 36.863 36.4167 36.0963 36.4167 34.9463V11.9463C36.4167 10.7963 35.65 10.0296 34.5 10.0296H11.5C10.35 10.0296 9.58333 10.7963 9.58333 11.9463V34.9463C9.58333 36.0963 10.35 36.863 11.5 36.863H34.5Z" fill="white"/>
</mask>
<g mask="url(#mask0_423_6430)">
<rect y="0.446289" width="46" height="46" fill="#687276"/>
</g>
</svg>
