<svg width="46" height="47" viewBox="0 0 46 47" fill="none" xmlns="http://www.w3.org/2000/svg">
<path fill-rule="evenodd" clip-rule="evenodd" d="M13.991 10.6043C14.7577 9.83763 15.9077 9.83763 16.6743 10.6043C17.441 11.371 17.441 12.521 16.6743 13.2876L6.51602 23.446L16.6743 33.6043C17.441 34.371 17.441 35.521 16.6743 36.2876C16.291 36.671 15.9077 36.8626 15.3327 36.8626C14.7577 36.8626 14.3743 36.671 13.991 36.2876L2.49102 24.7876C1.72435 24.021 1.72435 22.871 2.49102 22.1043L13.991 10.6043ZM32.0077 36.2876L43.5077 24.7876C44.2743 24.021 44.2743 22.871 43.5077 22.1043L32.0077 10.6043C31.241 9.83763 30.091 9.83763 29.3244 10.6043C28.5577 11.371 28.5577 12.521 29.3244 13.2876L39.4827 23.446L29.3244 33.6043C28.5577 34.371 28.5577 35.521 29.3244 36.2876C29.7077 36.671 30.091 36.8626 30.666 36.8626C31.241 36.8626 31.6243 36.671 32.0077 36.2876Z" fill="#333333"/>
<mask id="mask0_423_6451" style="mask-type:luminance" maskUnits="userSpaceOnUse" x="1" y="10" width="44" height="27">
<path fill-rule="evenodd" clip-rule="evenodd" d="M13.991 10.6043C14.7577 9.83763 15.9077 9.83763 16.6743 10.6043C17.441 11.371 17.441 12.521 16.6743 13.2876L6.51602 23.446L16.6743 33.6043C17.441 34.371 17.441 35.521 16.6743 36.2876C16.291 36.671 15.9077 36.8626 15.3327 36.8626C14.7577 36.8626 14.3743 36.671 13.991 36.2876L2.49102 24.7876C1.72435 24.021 1.72435 22.871 2.49102 22.1043L13.991 10.6043ZM32.0077 36.2876L43.5077 24.7876C44.2743 24.021 44.2743 22.871 43.5077 22.1043L32.0077 10.6043C31.241 9.83763 30.091 9.83763 29.3244 10.6043C28.5577 11.371 28.5577 12.521 29.3244 13.2876L39.4827 23.446L29.3244 33.6043C28.5577 34.371 28.5577 35.521 29.3244 36.2876C29.7077 36.671 30.091 36.8626 30.666 36.8626C31.241 36.8626 31.6243 36.671 32.0077 36.2876Z" fill="white"/>
</mask>
<g mask="url(#mask0_423_6451)">
<rect y="0.446289" width="46" height="46" fill="#687276"/>
</g>
</svg>
