<svg width="38" height="38" viewBox="0 0 38 38" fill="none" xmlns="http://www.w3.org/2000/svg">
<path fill-rule="evenodd" clip-rule="evenodd" d="M30.0832 3.16675H7.9165C5.22484 3.16675 3.1665 5.22508 3.1665 7.91675V30.0834C3.1665 32.7751 5.22484 34.8334 7.9165 34.8334H30.0832C32.7748 34.8334 34.8332 32.7751 34.8332 30.0834V7.91675C34.8332 5.22508 32.7748 3.16675 30.0832 3.16675ZM31.6665 30.0834C31.6665 31.0334 31.0332 31.6667 30.0832 31.6667H7.9165C6.9665 31.6667 6.33317 31.0334 6.33317 30.0834V7.91675C6.33317 6.96675 6.9665 6.33341 7.9165 6.33341H30.0832C31.0332 6.33341 31.6665 6.96675 31.6665 7.91675V30.0834ZM25.3332 20.5834C26.2832 20.5834 26.9165 19.9501 26.9165 19.0001C26.9165 18.0501 26.2832 17.4167 25.3332 17.4167H20.5832V12.6667C20.5832 11.7167 19.9498 11.0834 18.9998 11.0834C18.0498 11.0834 17.4165 11.7167 17.4165 12.6667V17.4167H12.6665C11.7165 17.4167 11.0832 18.0501 11.0832 19.0001C11.0832 19.9501 11.7165 20.5834 12.6665 20.5834H17.4165V25.3334C17.4165 26.2834 18.0498 26.9167 18.9998 26.9167C19.9498 26.9167 20.5832 26.2834 20.5832 25.3334V20.5834H25.3332Z" fill="#333333"/>
<mask id="mask0_587_11132" style="mask-type:luminance" maskUnits="userSpaceOnUse" x="3" y="3" width="32" height="32">
<path fill-rule="evenodd" clip-rule="evenodd" d="M30.0832 3.16675H7.9165C5.22484 3.16675 3.1665 5.22508 3.1665 7.91675V30.0834C3.1665 32.7751 5.22484 34.8334 7.9165 34.8334H30.0832C32.7748 34.8334 34.8332 32.7751 34.8332 30.0834V7.91675C34.8332 5.22508 32.7748 3.16675 30.0832 3.16675ZM31.6665 30.0834C31.6665 31.0334 31.0332 31.6667 30.0832 31.6667H7.9165C6.9665 31.6667 6.33317 31.0334 6.33317 30.0834V7.91675C6.33317 6.96675 6.9665 6.33341 7.9165 6.33341H30.0832C31.0332 6.33341 31.6665 6.96675 31.6665 7.91675V30.0834ZM25.3332 20.5834C26.2832 20.5834 26.9165 19.9501 26.9165 19.0001C26.9165 18.0501 26.2832 17.4167 25.3332 17.4167H20.5832V12.6667C20.5832 11.7167 19.9498 11.0834 18.9998 11.0834C18.0498 11.0834 17.4165 11.7167 17.4165 12.6667V17.4167H12.6665C11.7165 17.4167 11.0832 18.0501 11.0832 19.0001C11.0832 19.9501 11.7165 20.5834 12.6665 20.5834H17.4165V25.3334C17.4165 26.2834 18.0498 26.9167 18.9998 26.9167C19.9498 26.9167 20.5832 26.2834 20.5832 25.3334V20.5834H25.3332Z" fill="white"/>
</mask>
<g mask="url(#mask0_587_11132)">
<rect width="38" height="38" fill="#333333"/>
</g>
</svg>
