<svg width="40" height="40" viewBox="0 0 40 40" fill="none" xmlns="http://www.w3.org/2000/svg">
<path d="M29.522 19.042C35.3089 19.042 40 23.7331 40 29.5199C40 35.3068 35.3089 39.9979 29.522 39.9979C23.7352 39.9979 19.0441 35.3068 19.0441 29.5199C19.0441 23.7331 23.7352 19.042 29.522 19.042ZM19.0866 22.8508C18.5213 23.7334 18.0649 24.6925 17.7364 25.709L4.2843 25.7096C3.49636 25.7096 2.85762 26.3484 2.85762 27.1363V28.2369C2.85762 29.2574 3.2217 30.2443 3.88441 31.0204C6.27207 33.8165 10.0172 35.2373 15.2339 35.2373C16.3701 35.2373 17.4368 35.1698 18.4348 35.0355C18.902 35.9784 19.488 36.8518 20.1713 37.6385C18.6558 37.9436 17.0083 38.0949 15.2339 38.0949C9.2408 38.0949 4.69523 36.3704 1.7113 32.8761C0.606807 31.5828 0 29.9377 0 28.2369V27.1363C0 24.7702 1.91815 22.852 4.2843 22.852L19.0866 22.8508ZM29.522 22.8522L29.3508 22.8676C28.9619 22.9381 28.6554 23.2446 28.5849 23.6334L28.5695 23.8047L28.5676 28.5674H23.8142L23.643 28.5828C23.2541 28.6533 22.9476 28.9599 22.8771 29.3487L22.8617 29.5199L22.8771 29.6912C22.9476 30.08 23.2541 30.3866 23.643 30.4572L23.8142 30.4725H28.5676L28.5695 35.2352L28.5849 35.4065C28.6554 35.7953 28.9619 36.1018 29.3508 36.1723L29.522 36.1877L29.6933 36.1723C30.0821 36.1018 30.3887 35.7953 30.4592 35.4065L30.4746 35.2352L30.4727 30.4725H35.2447L35.416 30.4572C35.8048 30.3866 36.1113 30.08 36.1818 29.6912L36.1973 29.5199L36.1818 29.3487C36.1113 28.9599 35.8048 28.6533 35.416 28.5828L35.2447 28.5674H30.4727L30.4746 23.8047L30.4592 23.6334C30.3887 23.2446 30.0821 22.9381 29.6933 22.8676L29.522 22.8522ZM15.2339 0C20.4946 0 24.7593 4.26466 24.7593 9.52541C24.7593 14.7861 20.4946 19.0508 15.2339 19.0508C9.97317 19.0508 5.7085 14.7861 5.7085 9.52541C5.7085 4.26466 9.97317 0 15.2339 0ZM15.2339 2.85762C11.5514 2.85762 8.56613 5.84289 8.56613 9.52541C8.56613 13.2079 11.5514 16.1931 15.2339 16.1931C18.9164 16.1931 21.9017 13.2079 21.9017 9.52541C21.9017 5.84289 18.9164 2.85762 15.2339 2.85762Z" fill="#687276"/>
<ellipse cx="29.1667" cy="30.0001" rx="9.16667" ry="8.33333" fill="#687276"/>
<path d="M27.2795 25.9616H25.8736C26.8318 25.0278 28.1323 24.4808 29.4997 24.4808C32.36 24.4808 34.6855 26.8063 34.6855 29.6667H36.1663C36.1663 25.99 33.1743 23 29.4997 23C27.8426 23 26.2626 23.6239 25.0552 24.6996V23.7414H23.5744V27.4465H27.2795V25.9616ZM31.7239 33.3717H33.1278C32.1696 34.3056 30.8691 34.8525 29.4997 34.8525C26.6393 34.8525 24.3138 32.527 24.3138 29.6667H22.833C22.833 33.3434 25.825 36.3333 29.4997 36.3333C31.1587 36.3333 32.7388 35.7094 33.9461 34.6317V35.5939H35.4269V31.8889H31.7239V33.3717Z" fill="white"/>
</svg>
