<svg width="41" height="40" viewBox="0 0 41 40" fill="none" xmlns="http://www.w3.org/2000/svg">
<path d="M30.022 19.042C35.8089 19.042 40.5 23.7331 40.5 29.5199C40.5 35.3068 35.8089 39.9979 30.022 39.9979C24.2352 39.9979 19.5441 35.3068 19.5441 29.5199C19.5441 23.7331 24.2352 19.042 30.022 19.042ZM19.5866 22.8508C19.0213 23.7334 18.5649 24.6925 18.2364 25.709L4.7843 25.7096C3.99636 25.7096 3.35762 26.3484 3.35762 27.1363V28.2369C3.35762 29.2574 3.7217 30.2443 4.38441 31.0204C6.77207 33.8165 10.5172 35.2373 15.7339 35.2373C16.8701 35.2373 17.9368 35.1698 18.9348 35.0355C19.402 35.9784 19.988 36.8518 20.6713 37.6385C19.1558 37.9436 17.5083 38.0949 15.7339 38.0949C9.7408 38.0949 5.19523 36.3704 2.2113 32.8761C1.10681 31.5828 0.5 29.9377 0.5 28.2369V27.1363C0.5 24.7702 2.41815 22.852 4.7843 22.852L19.5866 22.8508ZM30.022 22.8522L29.8508 22.8676C29.4619 22.9381 29.1554 23.2446 29.0849 23.6334L29.0695 23.8047L29.0676 28.5674H24.3142L24.143 28.5828C23.7541 28.6533 23.4476 28.9599 23.3771 29.3487L23.3617 29.5199L23.3771 29.6912C23.4476 30.08 23.7541 30.3866 24.143 30.4572L24.3142 30.4725H29.0676L29.0695 35.2352L29.0849 35.4065C29.1554 35.7953 29.4619 36.1018 29.8508 36.1723L30.022 36.1877L30.1933 36.1723C30.5821 36.1018 30.8887 35.7953 30.9592 35.4065L30.9746 35.2352L30.9727 30.4725H35.7447L35.916 30.4572C36.3048 30.3866 36.6113 30.08 36.6818 29.6912L36.6973 29.5199L36.6818 29.3487C36.6113 28.9599 36.3048 28.6533 35.916 28.5828L35.7447 28.5674H30.9727L30.9746 23.8047L30.9592 23.6334C30.8887 23.2446 30.5821 22.9381 30.1933 22.8676L30.022 22.8522ZM15.7339 0C20.9946 0 25.2593 4.26466 25.2593 9.52541C25.2593 14.7861 20.9946 19.0508 15.7339 19.0508C10.4732 19.0508 6.2085 14.7861 6.2085 9.52541C6.2085 4.26466 10.4732 0 15.7339 0ZM15.7339 2.85762C12.0514 2.85762 9.06613 5.84289 9.06613 9.52541C9.06613 13.2079 12.0514 16.1931 15.7339 16.1931C19.4164 16.1931 22.4017 13.2079 22.4017 9.52541C22.4017 5.84289 19.4164 2.85762 15.7339 2.85762Z" fill="#687276"/>
<ellipse cx="29.6667" cy="30.0001" rx="9.16667" ry="8.33333" fill="#687276"/>
<path d="M32.1665 31.9671C32.1665 31.3117 32.5678 30.7123 33.2028 30.4192L34.6665 29.7437L30.2915 21.6667H29.0415L24.6665 29.7437L26.1303 30.4192C26.7653 30.7123 27.1665 31.3117 27.1665 31.9671V32.0514H25.9165V36.6667H33.4165V32.0514H32.1665V31.9671ZM26.689 29.3871L26.3434 29.2279L29.0415 24.2467V28.5898H30.2915V24.2467L32.9896 29.2273L32.644 29.3866C31.5784 29.8787 30.9165 30.8675 30.9165 31.9671V32.0514H28.4165V31.9671C28.4165 30.8675 27.7546 29.8787 26.689 29.3871ZM32.1665 35.5129H27.1665V33.2052H32.1665V35.5129Z" fill="white"/>
</svg>
