<svg width="38" height="39" viewBox="0 0 38 39" fill="none" xmlns="http://www.w3.org/2000/svg">
<path fill-rule="evenodd" clip-rule="evenodd" d="M11.5583 8.89199C12.1917 8.25866 13.1417 8.25866 13.775 8.89199C14.4083 9.52533 14.4083 10.4753 13.775 11.1087L5.38334 19.5003L13.775 27.892C14.4083 28.5253 14.4083 29.4753 13.775 30.1087C13.4583 30.4253 13.1417 30.5837 12.6667 30.5837C12.1917 30.5837 11.875 30.4253 11.5583 30.1087L2.05834 20.6087C1.425 19.9753 1.425 19.0253 2.05834 18.392L11.5583 8.89199ZM26.4417 30.1087L35.9417 20.6087C36.575 19.9753 36.575 19.0253 35.9417 18.392L26.4417 8.89199C25.8083 8.25866 24.8583 8.25866 24.225 8.89199C23.5917 9.52533 23.5917 10.4753 24.225 11.1087L32.6167 19.5003L24.225 27.892C23.5917 28.5253 23.5917 29.4753 24.225 30.1087C24.5417 30.4253 24.8583 30.5837 25.3333 30.5837C25.8083 30.5837 26.125 30.4253 26.4417 30.1087Z" fill="#333333"/>
<mask id="mask0_384_8021" style="mask-type:luminance" maskUnits="userSpaceOnUse" x="1" y="8" width="36" height="23">
<path fill-rule="evenodd" clip-rule="evenodd" d="M11.5583 8.89199C12.1917 8.25866 13.1417 8.25866 13.775 8.89199C14.4083 9.52533 14.4083 10.4753 13.775 11.1087L5.38334 19.5003L13.775 27.892C14.4083 28.5253 14.4083 29.4753 13.775 30.1087C13.4583 30.4253 13.1417 30.5837 12.6667 30.5837C12.1917 30.5837 11.875 30.4253 11.5583 30.1087L2.05834 20.6087C1.425 19.9753 1.425 19.0253 2.05834 18.392L11.5583 8.89199ZM26.4417 30.1087L35.9417 20.6087C36.575 19.9753 36.575 19.0253 35.9417 18.392L26.4417 8.89199C25.8083 8.25866 24.8583 8.25866 24.225 8.89199C23.5917 9.52533 23.5917 10.4753 24.225 11.1087L32.6167 19.5003L24.225 27.892C23.5917 28.5253 23.5917 29.4753 24.225 30.1087C24.5417 30.4253 24.8583 30.5837 25.3333 30.5837C25.8083 30.5837 26.125 30.4253 26.4417 30.1087Z" fill="white"/>
</mask>
<g mask="url(#mask0_384_8021)">
<rect y="0.5" width="38" height="38" fill="#333333"/>
</g>
</svg>
