<svg width="33" height="33" viewBox="0 0 33 33" fill="none" xmlns="http://www.w3.org/2000/svg">
<path d="M22.3133 19.3334C22.42 18.4534 22.5 17.5734 22.5 16.6667C22.5 15.76 22.42 14.88 22.3133 14H26.82C27.0333 14.8534 27.1667 15.7467 27.1667 16.6667C27.1667 17.5867 27.0333 18.48 26.82 19.3334M19.9533 26.7467C20.7533 25.2667 21.3667 23.6667 21.7933 22H25.7267C24.4349 24.2244 22.3855 25.9094 19.9533 26.7467ZM19.62 19.3334H13.38C13.2467 18.4534 13.1667 17.5734 13.1667 16.6667C13.1667 15.76 13.2467 14.8667 13.38 14H19.62C19.74 14.8667 19.8333 15.76 19.8333 16.6667C19.8333 17.5734 19.74 18.4534 19.62 19.3334ZM16.5 27.28C15.3933 25.68 14.5 23.9067 13.9533 22H19.0467C18.5 23.9067 17.6067 25.68 16.5 27.28ZM11.1667 11.3334H7.27332C8.5518 9.10299 10.5997 7.41536 13.0333 6.58671C12.2333 8.06671 11.6333 9.66671 11.1667 11.3334ZM7.27332 22H11.1667C11.6333 23.6667 12.2333 25.2667 13.0333 26.7467C10.6048 25.9089 8.55978 24.2237 7.27332 22ZM6.17999 19.3334C5.96666 18.48 5.83332 17.5867 5.83332 16.6667C5.83332 15.7467 5.96666 14.8534 6.17999 14H10.6867C10.58 14.88 10.5 15.76 10.5 16.6667C10.5 17.5734 10.58 18.4534 10.6867 19.3334M16.5 6.04004C17.6067 7.64004 18.5 9.42671 19.0467 11.3334H13.9533C14.5 9.42671 15.3933 7.64004 16.5 6.04004ZM25.7267 11.3334H21.7933C21.376 9.68198 20.7581 8.0879 19.9533 6.58671C22.4067 7.42671 24.4467 9.12004 25.7267 11.3334ZM16.5 3.33337C9.12666 3.33337 3.16666 9.33337 3.16666 16.6667C3.16666 20.2029 4.57141 23.5943 7.0719 26.0948C8.31001 27.3329 9.77987 28.315 11.3975 28.9851C13.0152 29.6552 14.749 30 16.5 30C20.0362 30 23.4276 28.5953 25.9281 26.0948C28.4286 23.5943 29.8333 20.2029 29.8333 16.6667C29.8333 14.9157 29.4884 13.1819 28.8184 11.5643C28.1483 9.94659 27.1662 8.47673 25.9281 7.23862C24.69 6.0005 23.2201 5.01838 21.6024 4.34831C19.9848 3.67825 18.2509 3.33337 16.5 3.33337Z" fill="white"/>
</svg>
