<svg width="29" height="29" viewBox="0 0 29 29" fill="none" xmlns="http://www.w3.org/2000/svg">
<path d="M14.5219 0.598633C6.8635 0.598633 0.652344 6.80979 0.652344 14.4682C0.652344 22.1266 6.8635 28.3378 14.5219 28.3378C22.1803 28.3378 28.3915 22.1266 28.3915 14.4682C28.3915 6.80979 22.1803 0.598633 14.5219 0.598633ZM15.6375 25.8654C15.5772 25.8654 15.5169 25.8654 15.4264 25.8955V19.3527C16.9943 19.3225 18.4114 19.2924 19.7079 19.2019C18.5622 22.7296 16.4214 25.0814 15.6375 25.8654ZM13.4063 25.8654C12.5922 25.0513 10.4816 22.6995 9.3359 19.2019C10.6022 19.2924 12.0495 19.3527 13.6174 19.3527V25.8955C13.5571 25.8955 13.4968 25.8654 13.4063 25.8654ZM3.06444 14.4682C3.06444 13.7144 3.1549 12.9606 3.2755 12.237C3.93883 12.1164 5.20518 11.9355 6.9841 11.7546C6.83335 12.629 6.74289 13.5335 6.74289 14.4983C6.74289 15.4632 6.83335 16.3677 6.95395 17.212C5.20518 17.0311 3.90868 16.8501 3.24535 16.7295C3.1549 15.9758 3.06444 15.222 3.06444 14.4682ZM8.58212 14.4682C8.58212 13.4431 8.70272 12.4782 8.88363 11.5737C10.2706 11.4832 11.8384 11.3928 13.6174 11.3928V17.5436C11.8686 17.5135 10.2706 17.4532 8.85348 17.3326C8.70272 16.4582 8.58212 15.4933 8.58212 14.4682ZM15.6074 3.07103C16.4214 3.88512 18.5019 6.29721 19.6778 9.73445C18.4114 9.644 16.9943 9.5837 15.4264 9.5837V3.04088C15.4867 3.04088 15.547 3.07103 15.6074 3.07103ZM13.6174 3.04088V9.5837C12.0495 9.61385 10.6324 9.644 9.36605 9.73445C10.5118 6.29721 12.6224 3.88512 13.4063 3.07103C13.4968 3.07103 13.5571 3.04088 13.6174 3.04088ZM15.4264 17.5436V11.3928C17.1752 11.4229 18.7732 11.4832 20.1602 11.5737C20.3411 12.4782 20.4617 13.4431 20.4617 14.4682C20.4617 15.4933 20.3712 16.4582 20.1903 17.3627C18.8034 17.4532 17.2054 17.5135 15.4264 17.5436ZM22.0296 11.7546C23.8085 11.9355 25.0748 12.1164 25.7382 12.237C25.8889 12.9606 25.9794 13.7144 25.9794 14.4682C25.9794 15.222 25.8889 15.9758 25.7683 16.6994C25.105 16.82 23.8386 17.0009 22.0597 17.1818C22.2105 16.3074 22.2708 15.4029 22.2708 14.438C22.2708 13.5335 22.1803 12.5988 22.0296 11.7546ZM25.1954 10.3073C24.3512 10.1867 23.1452 10.036 21.6074 9.88521C20.8838 7.2922 19.6175 5.21177 18.5622 3.73436C21.6074 4.88011 24.0195 7.29221 25.1954 10.3073ZM10.4816 3.73436C9.3962 5.18162 8.16 7.26205 7.43637 9.85506C5.92881 9.97567 4.72276 10.1566 3.84837 10.2772C5.02427 7.2922 7.46652 4.88011 10.4816 3.73436ZM3.84837 18.6291C4.69261 18.7497 5.89866 18.9004 7.40622 19.0512C8.12985 21.6442 9.3359 23.7246 10.4213 25.1719C7.40622 23.996 5.02427 21.614 3.84837 18.6291ZM18.6225 25.1719C19.7079 23.7246 20.914 21.6743 21.6376 19.0813C23.1452 18.9607 24.3512 18.7798 25.1954 18.6592C24.0195 21.614 21.6376 23.996 18.6225 25.1719Z" fill="white"/>
</svg>
