<svg width="38" height="38" viewBox="0 0 38 38" fill="none" xmlns="http://www.w3.org/2000/svg">
<path fill-rule="evenodd" clip-rule="evenodd" d="M6.35858 11.0837C6.35858 6.65033 9.8558 3.16699 14.3068 3.16699C18.7578 3.16699 22.255 6.65033 22.255 11.0837C22.255 15.517 18.7578 19.0003 14.3068 19.0003C9.8558 19.0003 6.35858 15.517 6.35858 11.0837ZM28.6136 30.0837V33.2503C28.6136 34.2003 27.9777 34.8337 27.024 34.8337C26.0702 34.8337 25.4343 34.2003 25.4343 33.2503V30.0837C25.4343 27.392 23.3678 25.3337 20.6654 25.3337H7.94822C5.24583 25.3337 3.17929 27.392 3.17929 30.0837V33.2503C3.17929 34.2003 2.54343 34.8337 1.58964 34.8337C0.635858 34.8337 0 34.2003 0 33.2503V30.0837C0 25.6503 3.49722 22.167 7.94822 22.167H20.6654C25.1164 22.167 28.6136 25.6503 28.6136 30.0837ZM14.3068 15.8337C11.6044 15.8337 9.53787 13.7753 9.53787 11.0837C9.53787 8.39199 11.6044 6.33366 14.3068 6.33366C17.0092 6.33366 19.0757 8.39199 19.0757 11.0837C19.0757 13.7753 17.0092 15.8337 14.3068 15.8337ZM32.1108 22.4837C31.316 22.3253 30.3622 22.8003 30.2032 23.592C30.0443 24.3837 30.5212 25.3337 31.316 25.492C33.3825 25.967 34.8132 27.867 34.8132 30.0837V33.2503C34.8132 34.2003 35.4491 34.8337 36.4029 34.8337C37.3567 34.8337 37.9925 34.2003 37.9925 33.2503V30.0837C38.1515 26.442 35.767 23.2753 32.1108 22.4837ZM23.8447 4.59199C24.1626 3.64199 24.9574 3.16699 25.7522 3.48366C30.0443 4.43366 32.5877 8.86699 31.475 13.3003C30.8391 16.1503 28.6136 18.2087 25.7522 19.0003H25.4343C24.6395 19.0003 24.0036 18.5253 23.8447 17.7337C23.5267 16.942 24.1626 15.992 24.9574 15.8337C26.706 15.3587 27.9777 14.092 28.4546 12.3503C29.0905 9.65866 27.5009 7.12533 24.9574 6.49199C24.1626 6.33366 23.6857 5.38366 23.8447 4.59199Z" fill="#333333"/>
<mask id="mask0_384_7397" style="mask-type:luminance" maskUnits="userSpaceOnUse" x="0" y="3" width="38" height="32">
<path fill-rule="evenodd" clip-rule="evenodd" d="M6.35858 11.0837C6.35858 6.65033 9.8558 3.16699 14.3068 3.16699C18.7578 3.16699 22.255 6.65033 22.255 11.0837C22.255 15.517 18.7578 19.0003 14.3068 19.0003C9.8558 19.0003 6.35858 15.517 6.35858 11.0837ZM28.6136 30.0837V33.2503C28.6136 34.2003 27.9777 34.8337 27.024 34.8337C26.0702 34.8337 25.4343 34.2003 25.4343 33.2503V30.0837C25.4343 27.392 23.3678 25.3337 20.6654 25.3337H7.94822C5.24583 25.3337 3.17929 27.392 3.17929 30.0837V33.2503C3.17929 34.2003 2.54343 34.8337 1.58964 34.8337C0.635858 34.8337 0 34.2003 0 33.2503V30.0837C0 25.6503 3.49722 22.167 7.94822 22.167H20.6654C25.1164 22.167 28.6136 25.6503 28.6136 30.0837ZM14.3068 15.8337C11.6044 15.8337 9.53787 13.7753 9.53787 11.0837C9.53787 8.39199 11.6044 6.33366 14.3068 6.33366C17.0092 6.33366 19.0757 8.39199 19.0757 11.0837C19.0757 13.7753 17.0092 15.8337 14.3068 15.8337ZM32.1108 22.4837C31.316 22.3253 30.3622 22.8003 30.2032 23.592C30.0443 24.3837 30.5212 25.3337 31.316 25.492C33.3825 25.967 34.8132 27.867 34.8132 30.0837V33.2503C34.8132 34.2003 35.4491 34.8337 36.4029 34.8337C37.3567 34.8337 37.9925 34.2003 37.9925 33.2503V30.0837C38.1515 26.442 35.767 23.2753 32.1108 22.4837ZM23.8447 4.59199C24.1626 3.64199 24.9574 3.16699 25.7522 3.48366C30.0443 4.43366 32.5877 8.86699 31.475 13.3003C30.8391 16.1503 28.6136 18.2087 25.7522 19.0003H25.4343C24.6395 19.0003 24.0036 18.5253 23.8447 17.7337C23.5267 16.942 24.1626 15.992 24.9574 15.8337C26.706 15.3587 27.9777 14.092 28.4546 12.3503C29.0905 9.65866 27.5009 7.12533 24.9574 6.49199C24.1626 6.33366 23.6857 5.38366 23.8447 4.59199Z" fill="white"/>
</mask>
<g mask="url(#mask0_384_7397)">
<rect width="38" height="38" fill="#333333"/>
</g>
</svg>
